<mxfile host="app.diagrams.net" modified="2024-01-31T16:34:53.676Z" agent="Mozilla/5.0 (Windows NT 10.0; Win64; x64) AppleWebKit/537.36 (KHTML, like Gecko) Chrome/121.0.0.0 Safari/537.36" etag="0oxDSG3hpDtkC39pPYvh" version="23.0.2" type="google" pages="2">
  <diagram id="f106602c-feb2-e66a-4537-3a34d633f6aa" name="Page-1">
    <mxGraphModel grid="0" page="1" gridSize="10" guides="1" tooltips="1" connect="1" arrows="1" fold="1" pageScale="1" pageWidth="1700" pageHeight="1100" background="#F8CECC" math="0" shadow="1">
      <root>
        <mxCell id="0" />
        <mxCell id="1" parent="0" />
        <mxCell id="zGcDoc4lVkIL3ZflWjKM-765" value="&lt;h1&gt;&lt;br&gt;&lt;/h1&gt;" style="points=[[0,0,0],[0.25,0,0],[0.5,0,0],[0.75,0,0],[1,0,0],[1,0.25,0],[1,0.5,0],[1,0.75,0],[1,1,0],[0.75,1,0],[0.5,1,0],[0.25,1,0],[0,1,0],[0,0.75,0],[0,0.5,0],[0,0.25,0]];rounded=1;absoluteArcSize=1;arcSize=2;html=1;strokeColor=#666666;shadow=0;dashed=0;fontSize=12;align=left;verticalAlign=top;spacing=10;spacingTop=-4;whiteSpace=wrap;fillColor=#4CAF50;gradientColor=#b3b3b3;" vertex="1" parent="1">
          <mxGeometry x="1297" y="344" width="373" height="456.75" as="geometry" />
        </mxCell>
        <mxCell id="zGcDoc4lVkIL3ZflWjKM-759" value="&lt;h1&gt;&lt;br&gt;&lt;/h1&gt;" style="points=[[0,0,0],[0.25,0,0],[0.5,0,0],[0.75,0,0],[1,0,0],[1,0.25,0],[1,0.5,0],[1,0.75,0],[1,1,0],[0.75,1,0],[0.5,1,0],[0.25,1,0],[0,1,0],[0,0.75,0],[0,0.5,0],[0,0.25,0]];rounded=1;absoluteArcSize=1;arcSize=2;html=1;strokeColor=#666666;shadow=0;dashed=0;fontSize=12;align=left;verticalAlign=top;spacing=10;spacingTop=-4;whiteSpace=wrap;fillColor=#007BFF;gradientColor=#b3b3b3;" vertex="1" parent="1">
          <mxGeometry x="43" y="269" width="538" height="651" as="geometry" />
        </mxCell>
        <mxCell id="7iRAKHH3Ag8CAZtPUHkE-9" style="edgeStyle=orthogonalEdgeStyle;rounded=0;orthogonalLoop=1;jettySize=auto;html=1;strokeColor=#FFFFFF;strokeWidth=3;" edge="1" parent="1" source="zGcDoc4lVkIL3ZflWjKM-746">
          <mxGeometry relative="1" as="geometry">
            <mxPoint x="1291" y="594.5" as="targetPoint" />
          </mxGeometry>
        </mxCell>
        <mxCell id="zGcDoc4lVkIL3ZflWjKM-746" value="&lt;h1 style=&quot;font-size: 32px;&quot;&gt;&lt;font face=&quot;Helvetica&quot;&gt;&lt;b style=&quot;border-color: var(--border-color);&quot;&gt;&lt;font color=&quot;#717171&quot;&gt;&amp;nbsp; &amp;nbsp; &amp;nbsp; &amp;nbsp; &amp;nbsp; &lt;/font&gt;&lt;font style=&quot;font-size: 32px;&quot;&gt;&lt;font color=&quot;#ffffff&quot;&gt;Google&lt;/font&gt;&lt;font color=&quot;#717171&quot;&gt;&amp;nbsp;&lt;/font&gt;&lt;/font&gt;&lt;/b&gt;&lt;font style=&quot;font-size: 32px;&quot;&gt;Cloud Platform&lt;/font&gt;&lt;/font&gt;&lt;br&gt;&lt;/h1&gt;" style="points=[[0,0,0],[0.25,0,0],[0.5,0,0],[0.75,0,0],[1,0,0],[1,0.25,0],[1,0.5,0],[1,0.75,0],[1,1,0],[0.75,1,0],[0.5,1,0],[0.25,1,0],[0,1,0],[0,0.75,0],[0,0.5,0],[0,0.25,0]];rounded=1;absoluteArcSize=1;arcSize=2;html=1;strokeColor=#666666;shadow=0;dashed=0;fontSize=12;align=left;verticalAlign=top;spacing=10;spacingTop=-4;whiteSpace=wrap;fillColor=#757575;gradientColor=#b3b3b3;" vertex="1" parent="1">
          <mxGeometry x="632" y="245" width="601" height="699" as="geometry" />
        </mxCell>
        <mxCell id="2" value="WorkFlow&amp;nbsp;GreenMobility Analytics" style="fillColor=#e51400;strokeColor=#B20000;shadow=1;fontSize=52;align=center;spacingLeft=50;fontColor=#ffffff;html=1;rounded=1;glass=0;fontFamily=Helvetica;fontStyle=1;" vertex="1" parent="1">
          <mxGeometry x="302" y="40" width="1161" height="126" as="geometry" />
        </mxCell>
        <mxCell id="bJt1QIP24p35jIjSRAFA-744" value="" style="group;rounded=1;shadow=1;" connectable="0" vertex="1" parent="1">
          <mxGeometry x="100" y="633.8199999999999" width="180" height="50" as="geometry" />
        </mxCell>
        <mxCell id="bJt1QIP24p35jIjSRAFA-731" value="&lt;font style=&quot;font-size: 17px;&quot;&gt;&lt;a href=&quot;https://drive.google.com/drive/folders/15GG63G6oZODqYjIcphwqQmJbXRvPi-jC?usp=sharing&quot; style=&quot;font-size: 17px;&quot;&gt;Google Drive&lt;/a&gt;&lt;/font&gt;" style="rounded=1;absoluteArcSize=1;arcSize=2;html=1;strokeColor=#2D7600;shadow=1;dashed=0;strokeColor=none;fontSize=17;align=left;verticalAlign=middle;spacing=10;spacingTop=-4;fillColor=#60a917;fontColor=#ffffff;fontFamily=Lucida Console;" vertex="1" parent="bJt1QIP24p35jIjSRAFA-744">
          <mxGeometry width="180" height="50" as="geometry" />
        </mxCell>
        <mxCell id="bJt1QIP24p35jIjSRAFA-736" value="" style="dashed=0;outlineConnect=0;html=1;align=center;labelPosition=center;verticalLabelPosition=bottom;verticalAlign=top;shape=mxgraph.weblogos.google_drive;" vertex="1" parent="bJt1QIP24p35jIjSRAFA-744">
          <mxGeometry x="136.32631578947368" y="10" width="34.2" height="28" as="geometry" />
        </mxCell>
        <mxCell id="zGcDoc4lVkIL3ZflWjKM-717" value="" style="edgeStyle=orthogonalEdgeStyle;rounded=0;orthogonalLoop=1;jettySize=auto;html=1;fontColor=#FFFFFF;strokeColor=#FFFFFF;strokeWidth=4;" edge="1" parent="1" source="bJt1QIP24p35jIjSRAFA-745" target="bJt1QIP24p35jIjSRAFA-753">
          <mxGeometry relative="1" as="geometry" />
        </mxCell>
        <mxCell id="bJt1QIP24p35jIjSRAFA-745" value="" style="shape=image;verticalLabelPosition=bottom;labelBackgroundColor=#ffffff;verticalAlign=top;aspect=fixed;imageAspect=0;image=data:image/svg+xml,PHN2ZyB4bWxuczpjYz0iaHR0cDovL2NyZWF0aXZlY29tbW9ucy5vcmcvbnMjIiB4bWxuczpkYz0iaHR0cDovL3B1cmwub3JnL2RjL2VsZW1lbnRzLzEuMS8iIHhtbG5zOmlua3NjYXBlPSJodHRwOi8vd3d3Lmlua3NjYXBlLm9yZy9uYW1lc3BhY2VzL2lua3NjYXBlIiB4bWxuczpyZGY9Imh0dHA6Ly93d3cudzMub3JnLzE5OTkvMDIvMjItcmRmLXN5bnRheC1ucyMiIHhtbG5zOnNvZGlwb2RpPSJodHRwOi8vc29kaXBvZGkuc291cmNlZm9yZ2UubmV0L0RURC9zb2RpcG9kaS0wLmR0ZCIgeG1sbnM6c3ZnPSJodHRwOi8vd3d3LnczLm9yZy8yMDAwL3N2ZyIgeG1sbnM9Imh0dHA6Ly93d3cudzMub3JnLzIwMDAvc3ZnIiB4bWxuczp4bGluaz0iaHR0cDovL3d3dy53My5vcmcvMTk5OS94bGluayIgdmVyc2lvbj0iMS4xIiBpZD0ic3ZnMTk2OTUxIiBpbmtzY2FwZTp2ZXJzaW9uPSIwLjkyLjMgKDI0MDU1NDYsIDIwMTgtMDMtMTEpIiBzb2RpcG9kaTpkb2NuYW1lPSJweXRob25fdG9vbHNfYW5kX3Nkay5zdmciIHg9IjBweCIgeT0iMHB4IiB2aWV3Qm94PSIwIDAgNDggNDgiIHN0eWxlPSJlbmFibGUtYmFja2dyb3VuZDpuZXcgMCAwIDQ4IDQ4OyIgeG1sOnNwYWNlPSJwcmVzZXJ2ZSI+JiN4YTs8c29kaXBvZGk6bmFtZWR2aWV3IGJvcmRlcmNvbG9yPSIjNjY2NjY2IiBib3JkZXJvcGFjaXR5PSIxIiBmaXQtbWFyZ2luLWJvdHRvbT0iMCIgZml0LW1hcmdpbi1sZWZ0PSIwIiBmaXQtbWFyZ2luLXJpZ2h0PSIwIiBmaXQtbWFyZ2luLXRvcD0iMCIgZ3JpZHRvbGVyYW5jZT0iMTAiIGd1aWRldG9sZXJhbmNlPSIxMCIgaWQ9Im5hbWVkdmlldzE5Njk1MyIgaW5rc2NhcGU6Y3VycmVudC1sYXllcj0ic3ZnMTk2OTUxIiBpbmtzY2FwZTpjeD0iMzIuMDAwMDE1IiBpbmtzY2FwZTpjeT0iMzIuMDAwNTg2IiBpbmtzY2FwZTpwYWdlb3BhY2l0eT0iMCIgaW5rc2NhcGU6cGFnZXNoYWRvdz0iMiIgaW5rc2NhcGU6d2luZG93LWhlaWdodD0iMTAxNyIgaW5rc2NhcGU6d2luZG93LW1heGltaXplZD0iMSIgaW5rc2NhcGU6d2luZG93LXdpZHRoPSIxOTIwIiBpbmtzY2FwZTp3aW5kb3cteD0iLTgiIGlua3NjYXBlOndpbmRvdy15PSItOCIgaW5rc2NhcGU6em9vbT0iMTAuMjcyOTE3IiBvYmplY3R0b2xlcmFuY2U9IjEwIiBwYWdlY29sb3I9IiNmZmZmZmYiIHNob3dncmlkPSJmYWxzZSI+JiN4YTsJPC9zb2RpcG9kaTpuYW1lZHZpZXc+JiN4YTs8ZyBpZD0iZzE5Njk0OSIgdHJhbnNmb3JtPSJ0cmFuc2xhdGUoLTcuNjUsLTcuNjQ5MjgwNikiPiYjeGE7CTx0aXRsZSBpZD0idGl0bGUxOTY5MDUiPlBhZ2UtMTwvdGl0bGU+JiN4YTsJPGcgaWQ9Imdyb3VwMTE3Ny0xIiB0cmFuc2Zvcm09InRyYW5zbGF0ZSg3LjY1LC03LjYxMzQyKSI+JiN4YTsJCTx0aXRsZSBpZD0idGl0bGUxOTY5MDciPlB5dGhvbiBUb29scyBhbmQgU0RLPC90aXRsZT4mI3hhOwkJPGcgaWQ9Imdyb3VwMTE3OC0yIj4mI3hhOwkJCTx0aXRsZSBpZD0idGl0bGUxOTY5MDkiPlNoZWV0LjExNzg8L3RpdGxlPiYjeGE7CQkJPGcgaWQ9Imdyb3VwMTE3OS0zIiB0cmFuc2Zvcm09InRyYW5zbGF0ZSgwLC0xMi4zMTQ3KSI+JiN4YTsJCQkJPHRpdGxlIGlkPSJ0aXRsZTE5NjkxMSI+U2hlZXQuMTE3OTwvdGl0bGU+JiN4YTsJCQkJPGcgaWQ9InNoYXBlMTE4MC00Ij4mI3hhOwkJCQkJPHRpdGxlIGlkPSJ0aXRsZTE5NjkxMyI+U2hlZXQuMTE4MDwvdGl0bGU+JiN4YTsJCQkJCTxwYXRoIGlkPSJwYXRoMTk2OTE1IiBpbmtzY2FwZTpjb25uZWN0b3ItY3VydmF0dXJlPSIwIiBzdHlsZT0iZmlsbDojMzc3MkE0OyIgZD0iTTAsNTEuMTdjMC4wMi0wLjA2LDAuMDQtMC4xMywwLjA1LTAuMiAgICAgICBjMC4wNC0wLjcsMC4wNC0xLjQsMC4xMS0yLjFjMC4yNC0yLjI2LDAuNzYtNC40NCwyLjE4LTYuMjhjMS4xLTEuNDQsMi41NC0yLjMsNC4zMy0yLjU0YzAuMjUtMC4wMywwLjUxLTAuMDQsMC43Ni0wLjA0ICAgICAgIGM1LjM5LDAsMTAuNzksMCwxNi4xOCwwYzAuMzEsMCwwLjMxLDAsMC4zMi0wLjMyYzAtMC4zNy0wLjAyLTAuNzUsMC0xLjEyYzAuMDEtMC4yMy0wLjA3LTAuMjktMC4yOS0wLjI5ICAgICAgIGMtMi45OCwwLjAxLTUuOTUsMC4wMS04LjkzLDAuMDFjLTAuNywwLTEuMzktMC4wMS0yLjA5LDBjLTAuMTksMC0wLjI2LTAuMDUtMC4yNS0wLjI1YzAtMS44My0wLjAxLTMuNjcsMC01LjUgICAgICAgYzAuMDEtMC44MiwwLjQtMS41MSwwLjkzLTIuMTFjMC43NC0wLjg0LDEuNjktMS4zNiwyLjcxLTEuNzVjMS4yNi0wLjQ4LDIuNTctMC43MywzLjg5LTAuODljMS44My0wLjIzLDMuNjYtMC4yNSw1LjQ5LTAuMTcgICAgICAgYzEuOTcsMC4wOCwzLjkyLDAuMzUsNS43OCwxLjA3YzEuMjYsMC40OSwyLjQsMS4xNiwzLjIzLDIuMjZjMC42OSwwLjkxLDEuMDEsMS45MiwwLjk1LDMuMDhjLTAuMDUsMC45My0wLjAyLDEuODctMC4wMSwyLjgxICAgICAgIGMwLDEuNzMsMC4wMSwzLjQ2LDAuMDEsNS4xOWMwLDEuMDIsMC4wMiwyLjA0LTAuMDUsMy4wNmMtMC4xNCwyLjQtMS4yOSw0LjExLTMuNTEsNS4wNGMtMS4wMSwwLjQyLTIuMDYsMC42MS0zLjE0LDAuNjEgICAgICAgYy0zLjgyLDAtNy42NS0wLjAxLTExLjQ3LDBjLTEuMjIsMC0yLjM5LDAuMjctMy40NSwwLjkxYy0xLjQsMC44NS0yLjIsMi4xNS0yLjY1LDMuN2MtMC4yMiwwLjc3LTAuMzEsMS41Ny0wLjMyLDIuMzcgICAgICAgYzAsMS43MywwLDMuNDYsMCw1LjE5YzAsMC4zNSwwLDAuMzUtMC4zNCwwLjM1Yy0xLjI1LDAtMi40OSwwLjA0LTMuNzQsMC4wMWMtMS4yNy0wLjA0LTIuMzctMC41NC0zLjMyLTEuMzcgICAgICAgYy0xLjEyLTAuOTYtMS44Mi0yLjE5LTIuMzEtMy41NmMtMC40Ni0xLjI1LTAuNzMtMi41NC0wLjg0LTMuODZjLTAuMDgtMC44NC0wLjExLTEuNjgtMC4xNi0yLjUyICAgICAgIEMwLjA0LDUxLjg3LDAuMDIsNTEuNzgsMCw1MS42OUMwLDUxLjUyLDAsNTEuMzUsMCw1MS4xN3oiLz4mI3hhOwkJCQk8L2c+JiN4YTsJCQkJPGcgaWQ9InNoYXBlMTE4MS02IiB0cmFuc2Zvcm09InRyYW5zbGF0ZSgxNS4yMDMzLC0yNy44MzIpIj4mI3hhOwkJCQkJPHRpdGxlIGlkPSJ0aXRsZTE5NjkxOCI+U2hlZXQuMTE4MTwvdGl0bGU+JiN4YTsJCQkJCTxwYXRoIGlkPSJwYXRoMTk2OTIwIiBpbmtzY2FwZTpjb25uZWN0b3ItY3VydmF0dXJlPSIwIiBkPSJNMCw2MS4xNWMwLDEuMTksMC45NCwyLjE1LDIuMTEsMi4xNWMxLjE1LDAsMi4xMS0wLjk3LDIuMTEtMi4xMyAgICAgICBjMC0xLjE5LTAuOTUtMi4xNi0yLjExLTIuMTVDMC45Myw1OS4wMywwLDU5Ljk3LDAsNjEuMTV6Ii8+JiN4YTsJCQkJPC9nPiYjeGE7CQkJCTxnIGlkPSJzaGFwZTExODItOCIgdHJhbnNmb3JtPSJ0cmFuc2xhdGUoMTUuMjAzMywtMjcuODMyKSI+JiN4YTsJCQkJCTx0aXRsZSBpZD0idGl0bGUxOTY5MjMiPlNoZWV0LjExODI8L3RpdGxlPiYjeGE7CQkJCQk8cGF0aCBpZD0icGF0aDE5NjkyNSIgaW5rc2NhcGU6Y29ubmVjdG9yLWN1cnZhdHVyZT0iMCIgc3R5bGU9ImZpbGw6I0ZGRkZGRjsiIGQ9Ik0wLDYxLjE1YzAtMS4xOCwwLjkzLTIuMTIsMi4xMS0yLjEzICAgICAgIGMxLjE2LTAuMDEsMi4xMSwwLjk2LDIuMTEsMi4xNWMwLDEuMTYtMC45NiwyLjEzLTIuMTEsMi4xM0MwLjk0LDYzLjMsMCw2Mi4zNCwwLDYxLjE1eiIvPiYjeGE7CQkJCTwvZz4mI3hhOwkJCTwvZz4mI3hhOwkJCTxnIGlkPSJncm91cDExODMtMTAiIHRyYW5zZm9ybT0idHJhbnNsYXRlKDEyLjU5NCkiPiYjeGE7CQkJCTx0aXRsZSBpZD0idGl0bGUxOTY5MjkiPlNoZWV0LjExODM8L3RpdGxlPiYjeGE7CQkJCTxnIGlkPSJzaGFwZTExODQtMTEiPiYjeGE7CQkJCQk8dGl0bGUgaWQ9InRpdGxlMTk2OTMxIj5TaGVldC4xMTg0PC90aXRsZT4mI3hhOwkJCQkJPHBhdGggaWQ9InBhdGgxOTY5MzMiIGlua3NjYXBlOmNvbm5lY3Rvci1jdXJ2YXR1cmU9IjAiIHN0eWxlPSJmaWxsOiNGRkRBNEI7IiBkPSJNMzUuNDEsMzkuNjZjLTAuMDIsMC4wNy0wLjA1LDAuMTQtMC4wNSwwLjIxICAgICAgIGMtMC4wNCwwLjctMC4wNSwxLjQtMC4xMiwyLjA5Yy0wLjIzLDIuMjctMC43NSw0LjQ1LTIuMTcsNi4yOWMtMS4xLDEuNDQtMi41NCwyLjMtNC4zNCwyLjUzYy0wLjI1LDAuMDQtMC41LDAuMDUtMC43NiwwLjA1ICAgICAgIGMtNS4zOSwwLTEwLjc4LDAtMTYuMTcsMGMtMC4zMiwwLTAuMzIsMC0wLjMyLDAuMzJjMCwwLjM3LDAuMDEsMC43NSwwLDEuMTJjLTAuMDIsMC4yMywwLjA3LDAuMjksMC4yOCwwLjI5ICAgICAgIGMyLjk4LTAuMDEsNS45Ni0wLjAxLDguOTQtMC4wMWMwLjY5LDAsMS4zOSwwLjAxLDIuMDksMGMwLjE5LDAsMC4yNSwwLjA1LDAuMjUsMC4yNWMtMC4wMSwxLjgzLDAuMDEsMy42Ny0wLjAxLDUuNSAgICAgICBjLTAuMDEsMC44Mi0wLjM5LDEuNTEtMC45MywyLjExYy0wLjc0LDAuODMtMS42OCwxLjM2LTIuNywxLjc1Yy0xLjI2LDAuNDgtMi41NywwLjcyLTMuOSwwLjg5Yy0xLjgyLDAuMjMtMy42NSwwLjI1LTUuNDgsMC4xNyAgICAgICBjLTEuOTctMC4wOS0zLjkyLTAuMzUtNS43OC0xLjA3Yy0xLjI2LTAuNDktMi40LTEuMTYtMy4yNC0yLjI3Yy0wLjY4LTAuOS0xLTEuOTItMC45NC0zLjA3YzAuMDUtMC45MywwLjAxLTEuODcsMC4wMS0yLjgxICAgICAgIGMwLTEuNzMtMC4wMS0zLjQ2LTAuMDEtNS4xOWMwLTEuMDItMC4wMi0yLjA0LDAuMDQtMy4wNmMwLjE0LTIuNCwxLjI5LTQuMTEsMy41Mi01LjA0YzEtMC40MywyLjA2LTAuNjEsMy4xNC0wLjYxICAgICAgIGMzLjgyLDAsNy42NCwwLjAxLDExLjQ2LDBjMS4yMywwLDIuNC0wLjI3LDMuNDYtMC45MWMxLjQtMC44NSwyLjItMi4xNSwyLjY0LTMuN2MwLjIyLTAuNzcsMC4zMi0xLjU3LDAuMzItMi4zNyAgICAgICBjMC4wMS0xLjczLDAtMy40NiwwLTUuMmMwLTAuMzQsMC0wLjM0LDAuMzUtMC4zNGMxLjI0LDAsMi40OS0wLjA0LDMuNzMtMC4wMWMxLjI3LDAuMDQsMi4zNywwLjU0LDMuMzMsMS4zNyAgICAgICBjMS4xMSwwLjk2LDEuODEsMi4xOSwyLjMxLDMuNTZjMC40NSwxLjI1LDAuNzIsMi41NCwwLjg0LDMuODZjMC4wNywwLjg0LDAuMTEsMS42OCwwLjE2LDIuNTFjMCwwLjEsMC4wMywwLjE5LDAuMDUsMC4yOCAgICAgICBDMzUuNDEsMzkuMzIsMzUuNDEsMzkuNDksMzUuNDEsMzkuNjZ6Ii8+JiN4YTsJCQkJPC9nPiYjeGE7CQkJCTxnIGlkPSJzaGFwZTExODUtMTMiIHRyYW5zZm9ybT0idHJhbnNsYXRlKDE1Ljk4MTMsLTMuOTEyKSI+JiN4YTsJCQkJCTx0aXRsZSBpZD0idGl0bGUxOTY5MzYiPlNoZWV0LjExODU8L3RpdGxlPiYjeGE7CQkJCQk8cGF0aCBpZD0icGF0aDE5NjkzOCIgaW5rc2NhcGU6Y29ubmVjdG9yLWN1cnZhdHVyZT0iMCIgZD0iTTQuMjIsNjEuMTZjMC0xLjE5LTAuOTQtMi4xNS0yLjExLTIuMTVDMC45Niw1OS4wMiwwLDU5Ljk4LDAsNjEuMTQgICAgICAgYzAsMS4xOSwwLjk1LDIuMTYsMi4xMiwyLjE1UzQuMjIsNjIuMzQsNC4yMiw2MS4xNnoiLz4mI3hhOwkJCQk8L2c+JiN4YTsJCQkJPGcgaWQ9InNoYXBlMTE4Ni0xNSIgdHJhbnNmb3JtPSJ0cmFuc2xhdGUoMTUuOTgwNywtMy45MTIpIj4mI3hhOwkJCQkJPHRpdGxlIGlkPSJ0aXRsZTE5Njk0MSI+U2hlZXQuMTE4NjwvdGl0bGU+JiN4YTsJCQkJCTxwYXRoIGlkPSJwYXRoMTk2OTQzIiBpbmtzY2FwZTpjb25uZWN0b3ItY3VydmF0dXJlPSIwIiBzdHlsZT0iZmlsbDojRkZGRkZGOyIgZD0iTTQuMjIsNjEuMTZjMCwxLjE4LTAuOTMsMi4xMi0yLjEsMi4xMyAgICAgICBDMC45NSw2My4zLDAsNjIuMzMsMCw2MS4xNGMwLTEuMTYsMC45Ni0yLjEyLDIuMTEtMi4xM0MzLjI4LDU5LjAxLDQuMjIsNTkuOTcsNC4yMiw2MS4xNnoiLz4mI3hhOwkJCQk8L2c+JiN4YTsJCQk8L2c+JiN4YTsJCTwvZz4mI3hhOwk8L2c+JiN4YTs8L2c+JiN4YTs8L3N2Zz4=;" vertex="1" parent="1">
          <mxGeometry x="420" y="539" width="88" height="88" as="geometry" />
        </mxCell>
        <mxCell id="bJt1QIP24p35jIjSRAFA-748" value="" style="group;fillColor=#d5e8d4;gradientColor=#97d077;strokeColor=#82b366;container=0;" connectable="0" vertex="1" parent="1">
          <mxGeometry x="105" y="383" width="190" height="50" as="geometry" />
        </mxCell>
        <mxCell id="zGcDoc4lVkIL3ZflWjKM-739" style="edgeStyle=orthogonalEdgeStyle;rounded=0;orthogonalLoop=1;jettySize=auto;html=1;fontColor=#FFFFFF;strokeColor=#FFFFFF;strokeWidth=4;" edge="1" parent="1">
          <mxGeometry relative="1" as="geometry">
            <mxPoint x="725" y="535" as="targetPoint" />
            <mxPoint x="725.1199999999999" y="703.3299999999999" as="sourcePoint" />
          </mxGeometry>
        </mxCell>
        <mxCell id="bJt1QIP24p35jIjSRAFA-751" value="&lt;h3&gt;&lt;font face=&quot;Helvetica&quot; color=&quot;#ffffff&quot; style=&quot;font-size: 14px;&quot;&gt;&lt;font style=&quot;&quot;&gt;Cloud&amp;nbsp;&lt;/font&gt;&lt;font style=&quot;&quot;&gt;Shell&lt;/font&gt;&lt;/font&gt;&lt;/h3&gt;" style="html=1;verticalAlign=top;labelPosition=center;verticalLabelPosition=bottom;align=center;spacingTop=-6;fontSize=11;fontStyle=1;fontColor=#999999;shape=image;aspect=fixed;imageAspect=0;image=data:image/svg+xml,PHN2ZyB4bWxucz0iaHR0cDovL3d3dy53My5vcmcvMjAwMC9zdmciIHhtbG5zOnY9Imh0dHBzOi8vdmVjdGEuaW8vbmFubyIgd2lkdGg9IjM3NS44NTAyODQ2NDQwODg3MyIgaGVpZ2h0PSIzNTMuODA1Nzc3NDY3NzY5NyIgdmlld0JveD0iMC4yNTU5OTk1NjUxMjQ1MTE3IDAuNDI2MDAwMDI4ODQ4NjQ4MDcgOTkuNDQzNjU2OTIxMzg2NzIgOTMuNjExMDAwMDYxMDM1MTYiPiYjeGE7PHN0eWxlIHR5cGU9InRleHQvY3NzIj4mI3hhOwkuc3Qwe2ZpbGw6I2FlY2JmYTt9JiN4YTsJLnN0MXtmaWxsOiNmZmY7fSYjeGE7CS5zdDJ7ZmlsbDojNDI4NWY0O30mI3hhOwkuc3Qze2ZpbGw6IzY2OWRmNjt9JiN4YTs8L3N0eWxlPiYjeGE7CTxwYXRoIGNsYXNzPSJzdDAiIGQ9Ik04LjU0NCA3MS45MjhjLTQuODE1IDAtOC4yODgtMy44ODktOC4yODgtOC4zMjdWNy45ODNDLjI1NyA0LjY1IDQuMDcyLjQyNiA3LjQ5NS40MjZoODMuOTUyYzQuNzA1IDAgOC4yNTIgMy4zNzkgOC4yNTIgOC4xNzR2NTEuNDk1Yy4wNDcgNy41OTUtMi40NyAxMS44MzQtOS4wMTIgMTEuODM0eiIvPiYjeGE7CTxwYXRoIGNsYXNzPSJzdDEiIGQ9Ik0yOC4wNDYgNTcuMTV2LTkuOTIybDMxLjg4Mi0xMy44OTEtMzEuODgyLTEzLjY5MlY5LjI2MWw0NS44MDYgMTguOTg0djkuNzl6bTI1LjIzNSAzLjY3MXYtMTAuNTVoMjAuMDc1djEwLjU1eiIvPiYjeGE7CTxwYXRoIGNsYXNzPSJzdDIiIGQ9Ik00MC4wMyA4My41MjRWNzEuOTI4aDIwLjI5NXYxMS41OTZ6Ii8+JiN4YTsJPHBhdGggY2xhc3M9InN0MyIgZD0iTTY5Ljg3MyA4My41MjR2MTAuNTEzSDMwLjFWODMuNTI0eiIvPiYjeGE7PC9zdmc+;" vertex="1" parent="1">
          <mxGeometry x="682" y="720.27" width="96.87" height="92.25" as="geometry" />
        </mxCell>
        <mxCell id="zGcDoc4lVkIL3ZflWjKM-747" style="edgeStyle=orthogonalEdgeStyle;rounded=0;orthogonalLoop=1;jettySize=auto;html=1;fontColor=#FFFFFF;strokeColor=#FFFFFF;strokeWidth=4;" edge="1" parent="1">
          <mxGeometry relative="1" as="geometry">
            <mxPoint x="857" y="438.82000000000005" as="sourcePoint" />
            <mxPoint x="1057" y="438.41" as="targetPoint" />
          </mxGeometry>
        </mxCell>
        <mxCell id="bJt1QIP24p35jIjSRAFA-752" value="&lt;h3&gt;&lt;font face=&quot;Helvetica&quot; color=&quot;#ffffff&quot; style=&quot;font-size: 14px;&quot;&gt;Big Query&lt;/font&gt;&lt;/h3&gt;" style="html=1;verticalAlign=top;labelPosition=center;verticalLabelPosition=bottom;align=center;spacingTop=-6;fontSize=11;fontStyle=1;fontColor=#999999;shape=image;aspect=fixed;imageAspect=0;image=data:image/svg+xml,PHN2ZyB4bWxucz0iaHR0cDovL3d3dy53My5vcmcvMjAwMC9zdmciIHhtbG5zOnY9Imh0dHBzOi8vdmVjdGEuaW8vbmFubyIgd2lkdGg9IjIwLjAwMTA0NTIyNzA1MDc4IiBoZWlnaHQ9IjIwLjAwMTA0NTIyNzA1MDc4IiBmaWxsLXJ1bGU9ImV2ZW5vZGQiIHZpZXdCb3g9IjAgMCAyMC4wMDEwNDUyMjcwNTA3OCAyMC4wMDEwNDUyMjcwNTA3OCI+JiN4YTsJPHN0eWxlIHR5cGU9InRleHQvY3NzIj4mI3hhOwkuc3Qwe2ZpbGw6I2FlY2JmYTt9JiN4YTsJLnN0MXtmaWxsOiM2NjlkZjY7fSYjeGE7CS5zdDJ7ZmlsbDojNDI4NWY0O30mI3hhOwk8L3N0eWxlPiYjeGE7CTxwYXRoIGNsYXNzPSJzdDAiIGQ9Ik00LjczIDguODN2Mi42M2E0LjkxIDQuOTEgMCAwIDAgMS43MSAxLjc0VjguODN6Ii8+JiN4YTsJPHBhdGggY2xhc3M9InN0MSIgZD0iTTcuODkgNi40MXY3LjUzQTcuNjIgNy42MiAwIDAgMCA5IDE0YTggOCAwIDAgMCAxIDBWNi40MXoiLz4mI3hhOwk8cGF0aCBjbGFzcz0ic3QwIiBkPSJNMTEuNjQgOS44NnYzLjI5YTUgNSAwIDAgMCAxLjctMS44MlY5Ljg2eiIvPiYjeGE7CTxwYXRoIGNsYXNzPSJzdDIiIGQ9Ik0xNS43NCAxNC4zMmwtMS40MiAxLjQyYS40Mi40MiAwIDAgMCAwIC42bDMuNTQgMy41NGEuNDIuNDIgMCAwIDAgLjU5IDBsMS40My0xLjQzYS40Mi40MiAwIDAgMCAwLS41OWwtMy41NC0zLjU0YS40Mi40MiAwIDAgMC0uNiAwIi8+JiN4YTsJPHBhdGggY2xhc3M9InN0MSIgZD0iTTkgMGE5IDkgMCAxIDAgMCAxOEE5IDkgMCAxIDAgOSAwbTAgMTUuNjlhNi42OCA2LjY4IDAgMCAxIC4wMDctMTMuMzYgNi42OCA2LjY4IDAgMCAxIDQuNzI3IDExLjQwM0E2LjY4IDYuNjggMCAwIDEgOSAxNS42OSIvPiYjeGE7PC9zdmc+;" vertex="1" parent="1">
          <mxGeometry x="743" y="390" width="98" height="98" as="geometry" />
        </mxCell>
        <mxCell id="zGcDoc4lVkIL3ZflWjKM-718" value="" style="edgeStyle=orthogonalEdgeStyle;rounded=0;orthogonalLoop=1;jettySize=auto;html=1;fontColor=#FFFFFF;strokeColor=#FFFFFF;strokeWidth=4;" edge="1" parent="1" source="bJt1QIP24p35jIjSRAFA-753" target="bJt1QIP24p35jIjSRAFA-751">
          <mxGeometry relative="1" as="geometry" />
        </mxCell>
        <mxCell id="bJt1QIP24p35jIjSRAFA-753" value="" style="shape=image;verticalLabelPosition=bottom;labelBackgroundColor=#ffffff;verticalAlign=top;aspect=fixed;imageAspect=0;image=data:image/svg+xml,PHN2ZyB4bWxuczpkYz0iaHR0cDovL3B1cmwub3JnL2RjL2VsZW1lbnRzLzEuMS8iIHhtbG5zOmNjPSJodHRwOi8vY3JlYXRpdmVjb21tb25zLm9yZy9ucyMiIHhtbG5zOnJkZj0iaHR0cDovL3d3dy53My5vcmcvMTk5OS8wMi8yMi1yZGYtc3ludGF4LW5zIyIgeG1sbnM6c3ZnPSJodHRwOi8vd3d3LnczLm9yZy8yMDAwL3N2ZyIgeG1sbnM9Imh0dHA6Ly93d3cudzMub3JnLzIwMDAvc3ZnIiB4bWxuczpzb2RpcG9kaT0iaHR0cDovL3NvZGlwb2RpLnNvdXJjZWZvcmdlLm5ldC9EVEQvc29kaXBvZGktMC5kdGQiIHhtbG5zOmlua3NjYXBlPSJodHRwOi8vd3d3Lmlua3NjYXBlLm9yZy9uYW1lc3BhY2VzL2lua3NjYXBlIiB2ZXJzaW9uPSIxLjEiIGlkPSJzdmcxMDE2NTMiIGlua3NjYXBlOnZlcnNpb249IjAuOTIuMyAoMjQwNTU0NiwgMjAxOC0wMy0xMSkiIHNvZGlwb2RpOmRvY25hbWU9Im15c3FsLnN2ZyIgeD0iMHB4IiB5PSIwcHgiIHZpZXdCb3g9IjAgMCA0Ni4wMyA2MC41NyIgeG1sOnNwYWNlPSJwcmVzZXJ2ZSIgd2lkdGg9IjQ2LjAyOTk5OSIgaGVpZ2h0PSI2MC41NyI+PG1ldGFkYXRhIGlkPSJtZXRhZGF0YTkxNCI+PHJkZjpSREY+PGNjOldvcmsgcmRmOmFib3V0PSIiPjxkYzpmb3JtYXQ+aW1hZ2Uvc3ZnK3htbDwvZGM6Zm9ybWF0PjxkYzp0eXBlIHJkZjpyZXNvdXJjZT0iaHR0cDovL3B1cmwub3JnL2RjL2RjbWl0eXBlL1N0aWxsSW1hZ2UiLz48ZGM6dGl0bGUvPjwvY2M6V29yaz48L3JkZjpSREY+PC9tZXRhZGF0YT48ZGVmcyBpZD0iZGVmczkxMiI+JiN4YTsJJiN4YTsmI3hhOwkmI3hhOyYjeGE7CSYjeGE7JiN4YTsJJiN4YTsmI3hhOwkmI3hhOyYjeGE7CSYjeGE7JiN4YTsJJiN4YTsmI3hhOwkmI3hhOyYjeGE7CQkmI3hhOwkmI3hhOwkJJiN4YTsJJiN4YTsJCSYjeGE7CSYjeGE7CQkmI3hhOwkmI3hhOwkJJiN4YTsJJiN4YTsJCSYjeGE7CSYjeGE7CQkmI3hhOwkmI3hhOwkJJiN4YTsJPC9kZWZzPiYjeGE7PGZpbHRlciBpZD0iZmlsdGVyXzIiPiYjeGE7CTxmZUdhdXNzaWFuQmx1ciBpZD0iZmVHYXVzc2lhbkJsdXIxMDE1NzgiIHN0ZERldmlhdGlvbj0iMiIvPiYjeGE7PC9maWx0ZXI+JiN4YTs8c29kaXBvZGk6bmFtZWR2aWV3IGJvcmRlcmNvbG9yPSIjNjY2NjY2IiBib3JkZXJvcGFjaXR5PSIxIiBmaXQtbWFyZ2luLWJvdHRvbT0iMCIgZml0LW1hcmdpbi1sZWZ0PSIwIiBmaXQtbWFyZ2luLXJpZ2h0PSIwIiBmaXQtbWFyZ2luLXRvcD0iMCIgZ3JpZHRvbGVyYW5jZT0iMTAiIGd1aWRldG9sZXJhbmNlPSIxMCIgaWQ9Im5hbWVkdmlldzEwMTY1NSIgaW5rc2NhcGU6Y3VycmVudC1sYXllcj0ic3ZnMTAxNjUzIiBpbmtzY2FwZTpjeD0iLTU5LjUzMDI0NyIgaW5rc2NhcGU6Y3k9IjMzLjIxNTIxIiBpbmtzY2FwZTpwYWdlb3BhY2l0eT0iMCIgaW5rc2NhcGU6cGFnZXNoYWRvdz0iMiIgaW5rc2NhcGU6d2luZG93LWhlaWdodD0iMTAxNyIgaW5rc2NhcGU6d2luZG93LW1heGltaXplZD0iMSIgaW5rc2NhcGU6d2luZG93LXdpZHRoPSIxOTIwIiBpbmtzY2FwZTp3aW5kb3cteD0iLTgiIGlua3NjYXBlOndpbmRvdy15PSItOCIgaW5rc2NhcGU6em9vbT0iNC44ODM3NzkiIG9iamVjdHRvbGVyYW5jZT0iMTAiIHBhZ2Vjb2xvcj0iI2ZmZmZmZiIgc2hvd2dyaWQ9ImZhbHNlIj4mI3hhOwk8L3NvZGlwb2RpOm5hbWVkdmlldz4mI3hhOyYjeGE7PHBhdGggaWQ9InBhdGgxMDE1OTEiIGlua3NjYXBlOmNvbm5lY3Rvci1jdXJ2YXR1cmU9IjAiIHN0eWxlPSJmaWxsOiMwMDcyYzYiIGQ9Ik0gMCw4LjI4IFYgNTIuMyBjIDAsNC41NyAxMC4zMSw4LjI3IDIzLjAyLDguMjcgViA4LjI4IFoiLz4mI3hhOyYjeGE7PHBhdGggaWQ9InBhdGgxMDE1OTkiIGlua3NjYXBlOmNvbm5lY3Rvci1jdXJ2YXR1cmU9IjAiIHN0eWxlPSJmaWxsOiMwMDcyYzYiIGQ9Im0gMjIuNyw2MC41NyBoIDAuMzEgYyAxMi43MiwwIDIzLjAyLC0zLjcgMjMuMDIsLTguMjcgViA4LjI4IEggMjIuNyBaIi8+JiN4YTsmI3hhOzxwYXRoIGlkPSJwYXRoMTAxNjA3IiBpbmtzY2FwZTpjb25uZWN0b3ItY3VydmF0dXJlPSIwIiBzdHlsZT0iZmlsbDojZmZmZmZmO2ZpbGwtb3BhY2l0eTowLjE1IiBkPSJtIDIyLjcsNjAuNTcgaCAwLjMxIGMgMTIuNzIsMCAyMy4wMiwtMy43IDIzLjAyLC04LjI3IFYgOC4yOCBIIDIyLjcgWiIvPiYjeGE7JiN4YTs8cGF0aCBpZD0icGF0aDEwMTYxNSIgaW5rc2NhcGU6Y29ubmVjdG9yLWN1cnZhdHVyZT0iMCIgc3R5bGU9ImZpbGw6I2ZmZmZmZiIgZD0ibSA0Ni4wMyw4LjI4IGMgMCw0LjU3IC0xMC4zLDguMjcgLTIzLjAxLDguMjcgQyAxMC4zMSwxNi41NSAwLDEyLjg1IDAsOC4yOCAwLDMuNzEgMTAuMzEsMCAyMy4wMiwwIDM1LjczLDAgNDYuMDMsMy43MSA0Ni4wMyw4LjI4IFoiLz4mI3hhOyYjeGE7PHBhdGggaWQ9InBhdGgxMDE2MjMiIGlua3NjYXBlOmNvbm5lY3Rvci1jdXJ2YXR1cmU9IjAiIHN0eWxlPSJmaWxsOiNkZDU5MDAiIGQ9Im0gNDEuMzMsNy44IGMgMCwzLjAyIC04LjIsNS40NiAtMTguMzEsNS40NiAtMTAuMTEsMCAtMTguMzEsLTIuNDQgLTE4LjMxLC01LjQ2IDAsLTMuMDEgOC4yLC01LjQ2IDE4LjMxLC01LjQ2IDEwLjEyLDAgMTguMzEsMi40NSAxOC4zMSw1LjQ2IHoiLz4mI3hhOyYjeGE7PHBhdGggaWQ9InBhdGgxMDE2MzEiIGlua3NjYXBlOmNvbm5lY3Rvci1jdXJ2YXR1cmU9IjAiIHN0eWxlPSJmaWxsOiNmZjhjMDAiIGQ9Im0gMzcuNSwxMS4xMyBjIDIuMzksLTAuOTIgMy44MywtMi4wOCAzLjgzLC0zLjMzIDAsLTMuMDIgLTguMiwtNS40NiAtMTguMzEsLTUuNDYgLTEwLjExLDAgLTE4LjMxLDIuNDQgLTE4LjMxLDUuNDYgMCwxLjI1IDEuNDQsMi40MSAzLjg0LDMuMzMgMy4zNCwtMS4yOSA4LjU3LC0yLjEyIDE0LjQ3LC0yLjEyIDUuOSwwIDExLjEyLDAuODMgMTQuNDgsMi4xMiB6Ii8+JiN4YTsmI3hhOzxwYXRoIGlkPSJwYXRoMTAxNjM5IiBpbmtzY2FwZTpjb25uZWN0b3ItY3VydmF0dXJlPSIwIiBzdHlsZT0iZmlsbDojZmZmZmZmIiBkPSJNIDQuNzgsNDAuNjggSCA3LjY5IFYgMjkuMTkgbCA0LjUxLDEwLjAyIGMgMC41MywxLjIxIDEuMjYsMS42NCAyLjY5LDEuNjQgMS40MiwwIDIuMTIsLTAuNDMgMi42NiwtMS42NCBsIDQuNSwtMTAuMDIgdiAxMS40OSBoIDIuOTEgViAyOS4yMSBjIDAsLTEuMTIgLTAuNDUsLTEuNjYgLTEuMzcsLTEuOTQgLTIuMjEsLTAuNjkgLTMuNjksLTAuMSAtNC4zNywxLjQgTCAxNC44LDM4LjU2IDEwLjUyLDI4LjY3IEMgOS44OCwyNy4xNyA4LjM2LDI2LjU4IDYuMTUsMjcuMjcgNS4yMywyNy41NSA0Ljc4LDI4LjA5IDQuNzgsMjkuMjEgWiIvPiYjeGE7JiN4YTs8cGF0aCBpZD0icGF0aDEwMTY0NyIgaW5rc2NhcGU6Y29ubmVjdG9yLWN1cnZhdHVyZT0iMCIgc3R5bGU9ImZpbGw6I2ZmZmZmZiIgZD0ibSAyNy4zOCwzMS4zMyBoIDIuOTEgdiA2LjMzIGMgLTAuMDMsMC4zNCAwLjExLDEuMTUgMS43LDEuMTggMC44MiwwLjAxIDYuMjgsMCA2LjM0LDAgdiAtNy41NSBoIDIuOTEgYyAwLjAyLDAgMCwxMC4yOSAwLDEwLjMzIDAuMDIsMi41NCAtMy4xNSwzLjA5IC00LjYsMy4xMyBoIC05LjIgdiAtMS45NiBjIDAuMDIsMCA5LjE5LDAuMDEgOS4yMSwwIDEuODgsLTAuMTkgMS42NSwtMS4xMyAxLjY1LC0xLjQ0IHYgLTAuNzYgaCAtNi4xOCBjIC0yLjg4LC0wLjAzIC00LjcyLC0xLjI5IC00Ljc0LC0yLjczIDAsLTAuMTQgMC4wNiwtNi40NyAwLC02LjUzIHoiLz4mI3hhOzwvc3ZnPg==;" vertex="1" parent="1">
          <mxGeometry x="426" y="749" width="76" height="100.78" as="geometry" />
        </mxCell>
        <mxCell id="zGcDoc4lVkIL3ZflWjKM-741" style="edgeStyle=orthogonalEdgeStyle;rounded=0;orthogonalLoop=1;jettySize=auto;html=1;fontColor=#FFFFFF;strokeColor=#FFFFFF;strokeWidth=4;" edge="1" parent="1">
          <mxGeometry relative="1" as="geometry">
            <mxPoint x="1119.045" y="605.4999999999999" as="targetPoint" />
            <mxPoint x="1118.69" y="515.5" as="sourcePoint" />
          </mxGeometry>
        </mxCell>
        <mxCell id="zGcDoc4lVkIL3ZflWjKM-725" value="&lt;h3&gt;&lt;font face=&quot;Helvetica&quot; color=&quot;#ffffff&quot; style=&quot;font-size: 14px;&quot;&gt;Cloud Storage&lt;/font&gt;&lt;/h3&gt;" style="html=1;verticalAlign=top;labelPosition=center;verticalLabelPosition=bottom;align=center;spacingTop=-6;fontSize=11;fontStyle=1;fontColor=#999999;shape=image;aspect=fixed;imageAspect=0;image=data:image/svg+xml,PHN2ZyB4bWxucz0iaHR0cDovL3d3dy53My5vcmcvMjAwMC9zdmciIHhtbG5zOnY9Imh0dHBzOi8vdmVjdGEuaW8vbmFubyIgd2lkdGg9IjIwIiBoZWlnaHQ9IjE2IiB2aWV3Qm94PSIwIDAgMjAgMTYiPiYjeGE7CTxzdHlsZSB0eXBlPSJ0ZXh0L2NzcyI+JiN4YTsJLnN0MHtmaWxsOiM0Mjg1ZjQ7fSYjeGE7CS5zdDF7ZmlsbDojNjY5ZGY2O30mI3hhOwkuc3Qye2ZpbGw6I2FlY2JmYTt9JiN4YTsJLnN0M3tmaWxsOiNmZmY7fSYjeGE7CTwvc3R5bGU+JiN4YTsJPHBhdGggY2xhc3M9InN0MiIgZD0iTTAgMGgyMHY3SDB6Ii8+JiN4YTsJPHBhdGggY2xhc3M9InN0MSIgZD0iTTE4IDBoMnY3aC0yeiIvPiYjeGE7CTxwYXRoIGNsYXNzPSJzdDAiIGQ9Ik0xOCA3bDItN2gtMnoiLz4mI3hhOwk8cGF0aCBjbGFzcz0ic3QxIiBkPSJNMCAwaDJ2N0gweiIvPiYjeGE7CTxnIGNsYXNzPSJzdDMiPiYjeGE7CQk8cGF0aCBkPSJNNCAzaDZ2MUg0eiIvPiYjeGE7CQk8cmVjdCB4PSIxMyIgeT0iMiIgd2lkdGg9IjMiIGhlaWdodD0iMyIgcng9IjEuNSIvPiYjeGE7CTwvZz4mI3hhOwk8cGF0aCBjbGFzcz0ic3QyIiBkPSJNMCA5aDIwdjdIMHoiLz4mI3hhOwk8cGF0aCBjbGFzcz0ic3QxIiBkPSJNMTggOWgydjdoLTJ6Ii8+JiN4YTsJPHBhdGggY2xhc3M9InN0MCIgZD0iTTE4IDE2bDItN2gtMnoiLz4mI3hhOwk8cGF0aCBjbGFzcz0ic3QxIiBkPSJNMCA5aDJ2N0gweiIvPiYjeGE7CTxnIGNsYXNzPSJzdDMiPiYjeGE7CQk8cGF0aCBkPSJNNCAxMmg2djFINHoiLz4mI3hhOwkJPHJlY3QgeD0iMTMiIHk9IjExIiB3aWR0aD0iMyIgaGVpZ2h0PSIzIiByeD0iMS41Ii8+JiN4YTsJPC9nPiYjeGE7PC9zdmc+;" vertex="1" parent="1">
          <mxGeometry x="1074" y="402.5" width="90.18" height="73" as="geometry" />
        </mxCell>
        <mxCell id="zGcDoc4lVkIL3ZflWjKM-728" value="&lt;h4&gt;&lt;/h4&gt;&lt;h3 style=&quot;&quot;&gt;&lt;/h3&gt;&lt;h3&gt;&lt;font face=&quot;Helvetica&quot; color=&quot;#ffffff&quot; style=&quot;font-size: 14px;&quot;&gt;&lt;span style=&quot;background-color: initial;&quot;&gt;Cloud&amp;nbsp;&lt;/span&gt;Run&lt;/font&gt;&lt;/h3&gt;" style="html=1;verticalAlign=top;labelPosition=center;verticalLabelPosition=bottom;align=center;spacingTop=-6;fontSize=11;fontStyle=1;fontColor=#999999;shape=image;aspect=fixed;imageAspect=0;image=data:image/svg+xml,PHN2ZyB4bWxucz0iaHR0cDovL3d3dy53My5vcmcvMjAwMC9zdmciIHhtbG5zOnY9Imh0dHBzOi8vdmVjdGEuaW8vbmFubyIgd2lkdGg9IjM2NS40NjQ5OTY3NzA0MjQ5MyIgaGVpZ2h0PSIzNzkuMjIyOTk0NDYzNTc3OTUiIHZpZXdCb3g9IjAgMCA5Ni42OTU5OTkxNDU1MDc4MSAxMDAuMzM1OTk4NTM1MTU2MjUiPiYjeGE7PHN0eWxlIHR5cGU9InRleHQvY3NzIj4mI3hhOwkuc3Qwe2ZpbGw6IzQyODVmNDt9JiN4YTsJLnN0MXtmaWxsOiNhZWNiZmE7fSYjeGE7PC9zdHlsZT4mI3hhOwk8cGF0aCBjbGFzcz0ic3QwIiBkPSJNMjkuNzk0IDEwMC4zMzZMNDYuOTIgNTAuMTY4aDQ5Ljc3NnpNMCA5OS42NzFsMTIuOTc2LTQ5LjUwMkgyOS4yMkwxNi44OTcgOTIuMDU0eiIvPiYjeGE7CTxwYXRoIGNsYXNzPSJzdDEiIGQ9Ik0yOS43OTQgMEw0Ni45MiA1MC4xNjhoNDkuNzc2ek0wIC42NjZsMTIuOTc2IDQ5LjUwMkgyOS4yMkwxNi44OTcgOC4yODN6Ii8+JiN4YTs8L3N2Zz4=;imageBackground=none;imageBorder=none;" vertex="1" parent="1">
          <mxGeometry x="1083.26" y="616" width="71.65" height="71.65" as="geometry" />
        </mxCell>
        <mxCell id="zGcDoc4lVkIL3ZflWjKM-742" style="edgeStyle=orthogonalEdgeStyle;rounded=0;orthogonalLoop=1;jettySize=auto;html=1;entryX=0;entryY=0.5;entryDx=0;entryDy=0;fontColor=#FFFFFF;strokeColor=#FFFFFF;strokeWidth=4;" edge="1" parent="1" target="bJt1QIP24p35jIjSRAFA-745">
          <mxGeometry relative="1" as="geometry">
            <mxPoint x="210" y="748" as="sourcePoint" />
          </mxGeometry>
        </mxCell>
        <mxCell id="zGcDoc4lVkIL3ZflWjKM-745" value="" style="group;" connectable="0" vertex="1" parent="1">
          <mxGeometry x="1413" y="609.9999999999999" width="151" height="161.82" as="geometry" />
        </mxCell>
        <mxCell id="zGcDoc4lVkIL3ZflWjKM-743" value="" style="shape=image;verticalLabelPosition=bottom;labelBackgroundColor=#ffffff;verticalAlign=top;aspect=fixed;imageAspect=0;image=data:image/svg+xml,PHN2ZyB4bWxuczpkYz0iaHR0cDovL3B1cmwub3JnL2RjL2VsZW1lbnRzLzEuMS8iIHhtbG5zOmNjPSJodHRwOi8vY3JlYXRpdmVjb21tb25zLm9yZy9ucyMiIHhtbG5zOnJkZj0iaHR0cDovL3d3dy53My5vcmcvMTk5OS8wMi8yMi1yZGYtc3ludGF4LW5zIyIgeG1sbnM6c3ZnPSJodHRwOi8vd3d3LnczLm9yZy8yMDAwL3N2ZyIgeG1sbnM9Imh0dHA6Ly93d3cudzMub3JnLzIwMDAvc3ZnIiB4bWxuczpzb2RpcG9kaT0iaHR0cDovL3NvZGlwb2RpLnNvdXJjZWZvcmdlLm5ldC9EVEQvc29kaXBvZGktMC5kdGQiIHhtbG5zOmlua3NjYXBlPSJodHRwOi8vd3d3Lmlua3NjYXBlLm9yZy9uYW1lc3BhY2VzL2lua3NjYXBlIiB2ZXJzaW9uPSIxLjEiIGlkPSJzdmc5MTExMCIgaW5rc2NhcGU6dmVyc2lvbj0iMC45Mi4zICgyNDA1NTQ2LCAyMDE4LTAzLTExKSIgc29kaXBvZGk6ZG9jbmFtZT0icG93ZXJfYmkuc3ZnIiB4PSIwcHgiIHk9IjBweCIgdmlld0JveD0iMCAwIDUwLjg1IDM4LjA3IiB4bWw6c3BhY2U9InByZXNlcnZlIiB3aWR0aD0iNTAuODQ5OTk4IiBoZWlnaHQ9IjM4LjA3Ij48bWV0YWRhdGEgaWQ9Im1ldGFkYXRhMTgwNjYiPjxyZGY6UkRGPjxjYzpXb3JrIHJkZjphYm91dD0iIj48ZGM6Zm9ybWF0PmltYWdlL3N2Zyt4bWw8L2RjOmZvcm1hdD48ZGM6dHlwZSByZGY6cmVzb3VyY2U9Imh0dHA6Ly9wdXJsLm9yZy9kYy9kY21pdHlwZS9TdGlsbEltYWdlIi8+PGRjOnRpdGxlLz48L2NjOldvcms+PC9yZGY6UkRGPjwvbWV0YWRhdGE+PGRlZnMgaWQ9ImRlZnMxODA2NCIvPiYjeGE7PGZpbHRlciBpZD0iZmlsdGVyXzIiPiYjeGE7CTxmZUdhdXNzaWFuQmx1ciBpZD0iZmVHYXVzc2lhbkJsdXI5MTA0MyIgc3RkRGV2aWF0aW9uPSIyIi8+JiN4YTs8L2ZpbHRlcj4mI3hhOzxzb2RpcG9kaTpuYW1lZHZpZXcgYm9yZGVyY29sb3I9IiM2NjY2NjYiIGJvcmRlcm9wYWNpdHk9IjEiIGZpdC1tYXJnaW4tYm90dG9tPSIwIiBmaXQtbWFyZ2luLWxlZnQ9IjAiIGZpdC1tYXJnaW4tcmlnaHQ9IjAiIGZpdC1tYXJnaW4tdG9wPSIwIiBncmlkdG9sZXJhbmNlPSIxMCIgZ3VpZGV0b2xlcmFuY2U9IjEwIiBpZD0ibmFtZWR2aWV3OTExMTIiIGlua3NjYXBlOmN1cnJlbnQtbGF5ZXI9InN2ZzkxMTEwIiBpbmtzY2FwZTpjeD0iLTMxLjA3MjI0OCIgaW5rc2NhcGU6Y3k9IjE4LjI0MDY4NiIgaW5rc2NhcGU6cGFnZW9wYWNpdHk9IjAiIGlua3NjYXBlOnBhZ2VzaGFkb3c9IjIiIGlua3NjYXBlOndpbmRvdy1oZWlnaHQ9IjEwMTciIGlua3NjYXBlOndpbmRvdy1tYXhpbWl6ZWQ9IjEiIGlua3NjYXBlOndpbmRvdy13aWR0aD0iMTkyMCIgaW5rc2NhcGU6d2luZG93LXg9Ii04IiBpbmtzY2FwZTp3aW5kb3cteT0iLTgiIGlua3NjYXBlOnpvb209IjEwLjA5NTE0NiIgb2JqZWN0dG9sZXJhbmNlPSIxMCIgcGFnZWNvbG9yPSIjZmZmZmZmIiBzaG93Z3JpZD0iZmFsc2UiPiYjeGE7CTwvc29kaXBvZGk6bmFtZWR2aWV3PiYjeGE7JiN4YTsmI3hhOzxwYXRoIGlkPSJwYXRoOTEwNTgiIGlua3NjYXBlOmNvbm5lY3Rvci1jdXJ2YXR1cmU9IjAiIHN0eWxlPSJmaWxsOiNlZGJkMTEiIGQ9Ik0gNDQuODUsMzIuOTUgSCA0My44MyBWIDMwLjkgaCAxLjAyIGMgMi4xOCwwIDMuOTUsLTEuNzcgMy45NSwtMy45NSBWIDYgQyA0OC44LDMuODIgNDcuMDMsMi4wNSA0NC44NSwyLjA1IEggNiBDIDMuODIsMi4wNSAyLjA1LDMuODIgMi4wNSw2IHYgMjAuOTUgYyAwLjAxLDIuMTggMS43NywzLjk0IDMuOTUsMy45NCBoIDEuMDIgdiAyLjA1IEggNiBjIC0zLjMxLDAgLTUuOTksLTIuNjggLTYsLTUuOTkgViA2IEMgMCwyLjY5IDIuNjksMCA2LDAgaCAzOC44NSBjIDMuMzEsMCA2LDIuNjkgNiw2IHYgMjAuOTUgYyAtMC4wMSwzLjMxIC0yLjY5LDUuOTkgLTYsNS45OSB6Ii8+JiN4YTsmI3hhOyYjeGE7PHBhdGggaWQ9InBhdGg5MTA2OCIgaW5rc2NhcGU6Y29ubmVjdG9yLWN1cnZhdHVyZT0iMCIgc3R5bGU9ImZpbGw6I2VkYmQxMSIgZD0ibSAxMi4yOSwyNi4wOCBjIDEuNTQsMCAyLjc5LDEuMjQgMi43OSwyLjc4IDAsMCAwLDAuMDEgMCwwLjAxIHYgNi40MSBjIDAsMS41NCAtMS4yNCwyLjc5IC0yLjc4LDIuNzkgMCwwIC0wLjAxLDAgLTAuMDEsMCAtMS41NCwwIC0yLjc4LC0xLjI1IC0yLjc4LC0yLjc5IDAsMCAwLDAgMCwwIHYgLTYuNDEgYyAwLC0xLjU0IDEuMjQsLTIuNzkgMi43OCwtMi43OSAwLDAgMCwwIDAsMCB6Ii8+JiN4YTsmI3hhOyYjeGE7PHBhdGggaWQ9InBhdGg5MTA3OCIgaW5rc2NhcGU6Y29ubmVjdG9yLWN1cnZhdHVyZT0iMCIgc3R5bGU9ImZpbGw6I2VkYmQxMSIgZD0ibSAyMS4wNSwzOC4wNiBjIC0xLjUzLDAgLTIuNzgsLTEuMjUgLTIuNzgsLTIuNzggViAxOC44MSBjIDAsLTEuNTQgMS4yNSwtMi43OCAyLjc5LC0yLjc4IDEuNTQsMCAyLjc4LDEuMjUgMi43OCwyLjc4IHYgMTYuNDcgYyAwLDEuNTQgLTEuMjQsMi43OSAtMi43OCwyLjc5IDAsMCAtMC4wMSwwIC0wLjAxLDAgeiIvPiYjeGE7JiN4YTsmI3hhOyYjeGE7PHBhdGggaWQ9InBhdGg5MTA5MCIgaW5rc2NhcGU6Y29ubmVjdG9yLWN1cnZhdHVyZT0iMCIgc3R5bGU9ImZpbGw6I2VkYmQxMSIgZD0ibSAzOC41NSwzNy45OSBjIC0xLjU0LDAgLTIuNzgsLTEuMjUgLTIuNzgsLTIuNzkgMCwwIDAsMCAwLDAgViAxMS44NyBjIDAsLTEuNTQgMS4yNSwtMi43OCAyLjc5LC0yLjc4IDEuNTQsMCAyLjc4LDEuMjUgMi43OCwyLjc4IFYgMzUuMiBjIDAsMS41NCAtMS4yNCwyLjc5IC0yLjc4LDIuNzkgMCwwIC0wLjAxLDAgLTAuMDEsMCB6Ii8+JiN4YTsmI3hhOyYjeGE7JiN4YTs8cGF0aCBpZD0icGF0aDkxMTAyIiBpbmtzY2FwZTpjb25uZWN0b3ItY3VydmF0dXJlPSIwIiBzdHlsZT0iZmlsbDojZWRiZDExIiBkPSJtIDI5LjgsMzguMDcgYyAtMS41NCwwIC0yLjc4LC0xLjI1IC0yLjc4LC0yLjc5IDAsMCAwLDAgMCwwIFYgMjMuMDQgYyAwLC0xLjU0IDEuMjUsLTIuNzkgMi43OCwtMi43OSAxLjU0LDAgMi43OSwxLjI1IDIuNzksMi43OSB2IDAgMTIuMjQgYyAwLDEuNTQgLTEuMjQsMi43OSAtMi43OCwyLjc5IDAsMCAtMC4wMSwwIC0wLjAxLDAgeiIvPiYjeGE7JiN4YTs8L3N2Zz4=;" vertex="1" parent="zGcDoc4lVkIL3ZflWjKM-745">
          <mxGeometry width="151" height="112.51" as="geometry" />
        </mxCell>
        <mxCell id="zGcDoc4lVkIL3ZflWjKM-744" value="" style="shape=image;verticalLabelPosition=bottom;labelBackgroundColor=#ffffff;verticalAlign=top;aspect=fixed;imageAspect=0;image=data:image/svg+xml,PHN2ZyB4bWxuczpjYz0iaHR0cDovL2NyZWF0aXZlY29tbW9ucy5vcmcvbnMjIiB4bWxuczpkYz0iaHR0cDovL3B1cmwub3JnL2RjL2VsZW1lbnRzLzEuMS8iIHhtbG5zOmlua3NjYXBlPSJodHRwOi8vd3d3Lmlua3NjYXBlLm9yZy9uYW1lc3BhY2VzL2lua3NjYXBlIiB4bWxuczpyZGY9Imh0dHA6Ly93d3cudzMub3JnLzE5OTkvMDIvMjItcmRmLXN5bnRheC1ucyMiIHhtbG5zOnNvZGlwb2RpPSJodHRwOi8vc29kaXBvZGkuc291cmNlZm9yZ2UubmV0L0RURC9zb2RpcG9kaS0wLmR0ZCIgeG1sbnM6c3ZnPSJodHRwOi8vd3d3LnczLm9yZy8yMDAwL3N2ZyIgeG1sbnM9Imh0dHA6Ly93d3cudzMub3JnLzIwMDAvc3ZnIiB4bWxuczp4bGluaz0iaHR0cDovL3d3dy53My5vcmcvMTk5OS94bGluayIgdmVyc2lvbj0iMS4xIiBpZD0ic3ZnMTEzNDY1IiBpbmtzY2FwZTp2ZXJzaW9uPSIwLjkyLjMgKDI0MDU1NDYsIDIwMTgtMDMtMTEpIiBzb2RpcG9kaTpkb2NuYW1lPSJwb3dlcl9iaV8xLnN2ZyIgeD0iMHB4IiB5PSIwcHgiIHZpZXdCb3g9IjAgMCAxNDMuMDcgMzQuMDgiIHN0eWxlPSJlbmFibGUtYmFja2dyb3VuZDpuZXcgMCAwIDE0My4wNyAzNC4wODsiIHhtbDpzcGFjZT0icHJlc2VydmUiPiYjeGE7PHNvZGlwb2RpOm5hbWVkdmlldyBib3JkZXJjb2xvcj0iIzY2NjY2NiIgYm9yZGVyb3BhY2l0eT0iMSIgZml0LW1hcmdpbi1ib3R0b209IjAiIGZpdC1tYXJnaW4tbGVmdD0iMCIgZml0LW1hcmdpbi1yaWdodD0iMCIgZml0LW1hcmdpbi10b3A9IjAiIGdyaWR0b2xlcmFuY2U9IjEwIiBndWlkZXRvbGVyYW5jZT0iMTAiIGlkPSJuYW1lZHZpZXcxMTM0NjciIGlua3NjYXBlOmN1cnJlbnQtbGF5ZXI9InN2ZzExMzQ2NSIgaW5rc2NhcGU6Y3g9Ijk1LjM4MTYwNyIgaW5rc2NhcGU6Y3k9IjIyLjcyMDI0MiIgaW5rc2NhcGU6cGFnZW9wYWNpdHk9IjAiIGlua3NjYXBlOnBhZ2VzaGFkb3c9IjIiIGlua3NjYXBlOndpbmRvdy1oZWlnaHQ9IjEwMTciIGlua3NjYXBlOndpbmRvdy1tYXhpbWl6ZWQ9IjEiIGlua3NjYXBlOndpbmRvdy13aWR0aD0iMTkyMCIgaW5rc2NhcGU6d2luZG93LXg9Ii04IiBpbmtzY2FwZTp3aW5kb3cteT0iLTgiIGlua3NjYXBlOnpvb209IjkuMjQ0NTAyOCIgb2JqZWN0dG9sZXJhbmNlPSIxMCIgcGFnZWNvbG9yPSIjZmZmZmZmIiBzaG93Z3JpZD0iZmFsc2UiPiYjeGE7CTwvc29kaXBvZGk6bmFtZWR2aWV3PiYjeGE7PGcgaWQ9ImcxMTM0NjMiIHRyYW5zZm9ybT0idHJhbnNsYXRlKC0wLjc1LC0wLjc0OTAyMDc2KSI+JiN4YTsJPHRpdGxlIGlkPSJ0aXRsZTExMzM5MiI+UGFnZS0xPC90aXRsZT4mI3hhOwk8ZyBpZD0iZ3JvdXAyOTAtMSIgdHJhbnNmb3JtPSJ0cmFuc2xhdGUoMC43NSwtMC43NSkiPiYjeGE7CQk8dGl0bGUgaWQ9InRpdGxlMTEzMzk0Ij5Qb3dlckJJICMxIChEZXByZWNhdGVkKTwvdGl0bGU+JiN4YTsJCTxnIGlkPSJzaGFwZTI5MS0yIiB0cmFuc2Zvcm09InRyYW5zbGF0ZSgwLC02LjUzMTYzKSI+JiN4YTsJCQk8dGl0bGUgaWQ9InRpdGxlMTEzMzk2Ij5TaGVldC4yOTE8L3RpdGxlPiYjeGE7CQkJPHBhdGggaWQ9InBhdGgxMTMzOTgiIGlua3NjYXBlOmNvbm5lY3Rvci1jdXJ2YXR1cmU9IjAiIHN0eWxlPSJmaWxsOiMzRjU3NjU7IiBkPSJNMi4wMSwzNS41OEMwLjksMzUuNTgsMCwzNC42OCwwLDMzLjU3di01LjY4ICAgICBjMC0xLjEsMC45LTIsMi4wMS0yczIuMDEsMC45LDIuMDEsMnY1LjY4QzQuMDIsMzQuNjgsMy4xMiwzNS41OCwyLjAxLDM1LjU4eiIvPiYjeGE7CQk8L2c+JiN4YTsJCTxnIGlkPSJzaGFwZTI5Mi00IiB0cmFuc2Zvcm09InRyYW5zbGF0ZSg2LjQ2MjM5LC00LjM2MjExKSI+JiN4YTsJCQk8dGl0bGUgaWQ9InRpdGxlMTEzNDAxIj5TaGVldC4yOTI8L3RpdGxlPiYjeGE7CQkJPHBhdGggaWQ9InBhdGgxMTM0MDMiIGlua3NjYXBlOmNvbm5lY3Rvci1jdXJ2YXR1cmU9IjAiIHN0eWxlPSJmaWxsOiMzRjU3NjU7IiBkPSJNMi4wMSwzNS41OEMwLjksMzUuNTgsMCwzNC42OCwwLDMzLjU3di05Ljk5ICAgICBjMC0xLjExLDAuOS0yLjAxLDIuMDEtMi4wMXMyLjAxLDAuOSwyLjAxLDIuMDF2OS45OUM0LjAyLDM0LjY4LDMuMTIsMzUuNTgsMi4wMSwzNS41OHoiLz4mI3hhOwkJPC9nPiYjeGE7CQk8ZyBpZD0ic2hhcGUyOTMtNiIgdHJhbnNmb3JtPSJ0cmFuc2xhdGUoMTIuOTI0OCwtMi4yMzg3NikiPiYjeGE7CQkJPHRpdGxlIGlkPSJ0aXRsZTExMzQwNiI+U2hlZXQuMjkzPC90aXRsZT4mI3hhOwkJCTxwYXRoIGlkPSJwYXRoMTEzNDA4IiBpbmtzY2FwZTpjb25uZWN0b3ItY3VydmF0dXJlPSIwIiBzdHlsZT0iZmlsbDojM0Y1NzY1OyIgZD0iTTIuMDEsMzUuNThDMC45LDM1LjU4LDAsMzQuNjgsMCwzMy41N1YxOS4yOSAgICAgYzAtMS4xMSwwLjktMi4wMSwyLjAxLTIuMDFzMi4wMSwwLjksMi4wMSwyLjAxdjE0LjI4QzQuMDIsMzQuNjgsMy4xMiwzNS41OCwyLjAxLDM1LjU4eiIvPiYjeGE7CQk8L2c+JiN4YTsJCTxnIGlkPSJncm91cDI5NC04IiB0cmFuc2Zvcm09InRyYW5zbGF0ZSgxLjI0NjMyKSI+JiN4YTsJCQk8dGl0bGUgaWQ9InRpdGxlMTEzNDExIj5TaGVldC4yOTQ8L3RpdGxlPiYjeGE7CQkJPGcgaWQ9InNoYXBlMjk1LTkiIHRyYW5zZm9ybT0idHJhbnNsYXRlKDAsLTIuOTc3MzEpIj4mI3hhOwkJCQk8dGl0bGUgaWQ9InRpdGxlMTEzNDEzIj5TaGVldC4yOTU8L3RpdGxlPiYjeGE7CQkJCTxwYXRoIGlkPSJwYXRoMTEzNDE1IiBpbmtzY2FwZTpjb25uZWN0b3ItY3VydmF0dXJlPSIwIiBzdHlsZT0iZmlsbDojM0Y1NzY1OyIgZD0iTTMwLjY1LDEzLjAxTDIuNjEsNC41OCAgICAgIEMxLjIyLDQuMTcsMCw1LjAyLDAsNi4zNHYxNC4wM2MwLjI1LTAuMDUsMC41MS0wLjA3LDAuNzgtMC4wN2MwLjI4LDAsMC41NCwwLjAyLDAuNzksMC4wN1Y2LjM2YzAtMC4wOSwwLTAuMzIsMC4zNS0wLjMyICAgICAgYzAuMDksMCwwLjE4LDAuMDIsMC4yNywwLjA0bDI4LjA0LDguNGMwLjYsMC4xOSwxLjA3LDAuODEsMS4wNywxLjI1djE3Ljk4YzAsMC4wOSwwLDAuMzItMC4zNSwwLjMyICAgICAgYy0wLjA5LDAtMC4xOC0wLjAyLTAuMjgtMC4wNGwtNi40Ni0xLjk0djEuNjFsNi4wMiwxLjhjMC4yNCwwLjA3LDAuNDksMC4xMiwwLjcyLDAuMTJjMS4xMSwwLDEuODktMC43OSwxLjg5LTEuODdWMTUuNzMgICAgICBDMzIuODIsMTQuNTgsMzEuODcsMTMuMzgsMzAuNjUsMTMuMDF6Ii8+JiN4YTsJCQk8L2c+JiN4YTsJCQk8ZyBpZD0ic2hhcGUyOTYtMTEiIHRyYW5zZm9ybT0idHJhbnNsYXRlKDE4LjE0MDgpIj4mI3hhOwkJCQk8dGl0bGUgaWQ9InRpdGxlMTEzNDE4Ij5TaGVldC4yOTY8L3RpdGxlPiYjeGE7CQkJCTxwYXRoIGlkPSJwYXRoMTEzNDIwIiBpbmtzY2FwZTpjb25uZWN0b3ItY3VydmF0dXJlPSIwIiBzdHlsZT0iZmlsbDojM0Y1NzY1OyIgZD0iTTIuMDEsMzUuNThDMC45LDM1LjU4LDAsMzQuNjgsMCwzMy41N1YxNC44MyAgICAgIGMwLTEuMTEsMC45LTIuMDEsMi4wMS0yLjAxczIuMDEsMC45LDIuMDEsMi4wMXYxOC43NEM0LjAyLDM0LjY4LDMuMTIsMzUuNTgsMi4wMSwzNS41OHoiLz4mI3hhOwkJCTwvZz4mI3hhOwkJPC9nPiYjeGE7CQk8ZyBpZD0iZ3JvdXAyOTctMTMiIHRyYW5zZm9ybT0idHJhbnNsYXRlKDUxLjAwNjcsLTcuNjg1NjIpIj4mI3hhOwkJCTx0aXRsZSBpZD0idGl0bGUxMTM0MjQiPlNoZWV0LjI5NzwvdGl0bGU+JiN4YTsJCQk8ZyBpZD0ic2hhcGUyOTgtMTQiIHRyYW5zZm9ybT0idHJhbnNsYXRlKDAsLTAuMzAwMDM5KSI+JiN4YTsJCQkJPHRpdGxlIGlkPSJ0aXRsZTExMzQyNiI+U2hlZXQuMjk4PC90aXRsZT4mI3hhOwkJCQk8cGF0aCBpZD0icGF0aDExMzQyOCIgaW5rc2NhcGU6Y29ubmVjdG9yLWN1cnZhdHVyZT0iMCIgc3R5bGU9ImZpbGw6IzNGNTc2NTsiIGQ9Ik0yLjEsMjguODJ2Ni43NkgwVjE3LjY3aDQuOTIgICAgICBjMS45MSwwLDMuMzksMC40Niw0LjQ1LDEuNDFjMS4wNiwwLjkyLDEuNTcsMi4yNCwxLjU3LDMuOTRjMCwxLjcxLTAuNTgsMy4xLTEuNzUsNC4xOGMtMS4xOCwxLjA5LTIuNzUsMS42Mi00Ljc0LDEuNjIgICAgICBMMi4xLDI4LjgyeiBNMi4xLDE5LjU2djcuMzRoMi4xOWMxLjQ2LDAsMi41Ni0wLjMyLDMuMzMtMC45OWMwLjc2LTAuNjcsMS4xMy0xLjU5LDEuMTMtMi43OWMwLTIuMzYtMS40MS0zLjU2LTQuMi0zLjU2SDIuMXoiLz4mI3hhOwkJCTwvZz4mI3hhOwkJCTxnIGlkPSJzaGFwZTI5OS0xNiIgdHJhbnNmb3JtPSJ0cmFuc2xhdGUoMTIuNTU1NSkiPiYjeGE7CQkJCTx0aXRsZSBpZD0idGl0bGUxMTM0MzEiPlNoZWV0LjI5OTwvdGl0bGU+JiN4YTsJCQkJPHBhdGggaWQ9InBhdGgxMTM0MzMiIGlua3NjYXBlOmNvbm5lY3Rvci1jdXJ2YXR1cmU9IjAiIHN0eWxlPSJmaWxsOiMzRjU3NjU7IiBkPSJNNi4yMSwzNS41OGMtMS44OSwwLTMuMzktMC42LTQuNTMtMS44ICAgICAgQzAuNTUsMzIuNTgsMCwzMS4wMSwwLDI5LjAyYzAtMi4xNCwwLjU4LTMuODMsMS43NS01LjAzYzEuMTgtMS4yLDIuNzctMS44LDQuNzYtMS44YzEuOTEsMCwzLjM5LDAuNTgsNC40NSwxLjc2ICAgICAgYzEuMDYsMS4xNywxLjYyLDIuNzksMS42Miw0Ljg3YzAsMi4wMy0wLjU4LDMuNjctMS43Myw0Ljg5QzkuNjksMzQuOTYsOC4xNSwzNS41OCw2LjIxLDM1LjU4eiBNNi4zNywyMy45MiAgICAgIGMtMS4zMiwwLTIuMzUsMC40NC0zLjEyLDEuMzRjLTAuNzYsMC45LTEuMTUsMi4xMy0xLjE1LDMuN2MwLDEuNTIsMC4zOSwyLjcsMS4xNSwzLjU3YzAuNzksMC44OCwxLjgsMS4zMiwzLjEyLDEuMzIgICAgICBzMi4zMy0wLjQ0LDMuMDUtMS4yOWMwLjcxLTAuODYsMS4wNi0yLjA4LDEuMDYtMy42NWMwLTEuNTktMC4zNS0yLjg0LTEuMDYtMy42OUM4LjcsMjQuMzQsNy42OSwyMy45Miw2LjM3LDIzLjkyeiIvPiYjeGE7CQkJPC9nPiYjeGE7CQkJPGcgaWQ9InNoYXBlMzAwLTE4IiB0cmFuc2Zvcm09InRyYW5zbGF0ZSgyNi4yNjUsLTAuMzAwMDM5KSI+JiN4YTsJCQkJPHRpdGxlIGlkPSJ0aXRsZTExMzQzNiI+U2hlZXQuMzAwPC90aXRsZT4mI3hhOwkJCQk8cGF0aCBpZD0icGF0aDExMzQzOCIgaW5rc2NhcGU6Y29ubmVjdG9yLWN1cnZhdHVyZT0iMCIgc3R5bGU9ImZpbGw6IzNGNTc2NTsiIGQ9Ik0xNy44OSwyMi43OWwtMy44MywxMi43OWgtMi4xM0w5LjMsMjYuNDQgICAgICBjLTAuMDktMC4zNS0wLjE2LTAuNzQtMC4yMS0xLjE4SDkuMDVjLTAuMDMsMC4zLTAuMTIsMC43LTAuMjYsMS4xNmwtMi44Niw5LjE2SDMuODhMMCwyMi43OWgyLjE1bDIuNjUsOS42ICAgICAgYzAuMDksMC4zLDAuMTQsMC42NywwLjE5LDEuMTZoMC4wOWMwLjAyLTAuMzcsMC4wOS0wLjc2LDAuMjMtMS4xOGwyLjk1LTkuNThoMS44N2wyLjY2LDkuNjNjMC4wOSwwLjMsMC4xMywwLjY5LDAuMTgsMS4xNWgwLjA5ICAgICAgYzAuMDMtMC4zMiwwLjEtMC43MSwwLjIxLTEuMTVsMi41OS05LjYzTDE3Ljg5LDIyLjc5eiIvPiYjeGE7CQkJPC9nPiYjeGE7CQkJPGcgaWQ9InNoYXBlMzAxLTIwIiB0cmFuc2Zvcm09InRyYW5zbGF0ZSg0NS4zMDU5LC0wLjAyMzA4KSI+JiN4YTsJCQkJPHRpdGxlIGlkPSJ0aXRsZTExMzQ0MSI+U2hlZXQuMzAxPC90aXRsZT4mI3hhOwkJCQk8cGF0aCBpZD0icGF0aDExMzQ0MyIgaW5rc2NhcGU6Y29ubmVjdG9yLWN1cnZhdHVyZT0iMCIgc3R5bGU9ImZpbGw6IzNGNTc2NTsiIGQ9Ik0xMS4xMiwyOS40MkgyLjEgICAgICBjMC4wMiwxLjQzLDAuNDIsMi41MSwxLjE1LDMuM2MwLjc0LDAuNzgsMS43NCwxLjE1LDMuMDMsMS4xNWMxLjQzLDAsMi43Ny0wLjQ4LDMuOTctMS40M3YxLjkyYy0xLjEzLDAuOC0yLjYxLDEuMjItNC40NiwxLjIyICAgICAgYy0xLjgsMC0zLjIzLTAuNTgtNC4yNC0xLjczQzAuNTEsMzIuNjksMCwzMS4wNiwwLDI4Ljk2YzAtMS45OSwwLjU1LTMuNiwxLjY4LTQuODdjMS4xNC0xLjI1LDIuNTItMS44Nyw0LjIxLTEuODcgICAgICBjMS42NiwwLDIuOTcsMC41MywzLjg3LDEuNjFjMC45MywxLjA5LDEuMzYsMi41OSwxLjM2LDQuNVYyOS40MnogTTkuMDUsMjcuNjljMC0xLjE4LTAuMy0yLjEtMC44Ni0yLjc1ICAgICAgYy0wLjU1LTAuNjctMS4zNC0wLjk5LTIuMzMtMC45OWMtMC45NywwLTEuNzcsMC4zNC0yLjQ3LDEuMDRjLTAuNjcsMC42OS0xLjA4LDEuNTktMS4yNCwyLjdMOS4wNSwyNy42OXoiLz4mI3hhOwkJCTwvZz4mI3hhOwkJCTxnIGlkPSJzaGFwZTMwMi0yMiIgdHJhbnNmb3JtPSJ0cmFuc2xhdGUoNTkuNDA3OCwtMC4zMDAwMzkpIj4mI3hhOwkJCQk8dGl0bGUgaWQ9InRpdGxlMTEzNDQ2Ij5TaGVldC4zMDI8L3RpdGxlPiYjeGE7CQkJCTxwYXRoIGlkPSJwYXRoMTEzNDQ4IiBpbmtzY2FwZTpjb25uZWN0b3ItY3VydmF0dXJlPSIwIiBzdHlsZT0iZmlsbDojM0Y1NzY1OyIgZD0iTTYuNjcsMjQuODdjLTAuMzUtMC4yOC0wLjg4LTAuNDItMS41NS0wLjQyICAgICAgYy0wLjg3LDAtMS41OSwwLjQyLTIuMTksMS4yNWMtMC41OCwwLjgzLTAuODgsMS45NC0wLjg4LDMuMzd2Ni41MUgwVjIyLjc5aDIuMDV2Mi42M0gyLjFjMC4zLTAuOSwwLjc0LTEuNTksMS4zNC0yLjEgICAgICBjMC42LTAuNSwxLjI3LTAuNzYsMi4wMS0wLjc2YzAuNTMsMCwwLjk0LDAuMDcsMS4yMiwwLjE5VjI0Ljg3eiIvPiYjeGE7CQkJPC9nPiYjeGE7CQkJPGcgaWQ9InNoYXBlMzAzLTI0IiB0cmFuc2Zvcm09InRyYW5zbGF0ZSg3NS41ODY4LC0wLjMwMDAzOSkiPiYjeGE7CQkJCTx0aXRsZSBpZD0idGl0bGUxMTM0NTEiPlNoZWV0LjMwMzwvdGl0bGU+JiN4YTsJCQkJPHBhdGggaWQ9InBhdGgxMTM0NTMiIGlua3NjYXBlOmNvbm5lY3Rvci1jdXJ2YXR1cmU9IjAiIHN0eWxlPSJmaWxsOiMzRjU3NjU7IiBkPSJNMCwzNS41OFYxNy42N2g1LjEgICAgICBjMS41NSwwLDIuNzcsMC4zNywzLjY5LDEuMTNjMC45LDAuNzYsMS4zNywxLjc1LDEuMzcsMi45NWMwLDEuMDItMC4yOCwxLjktMC44NCwyLjY2QzguNzcsMjUuMTUsOC4wMSwyNS42OCw3LjA2LDI2djAuMDUgICAgICBjMS4yLDAuMTQsMi4xNywwLjYsMi44OSwxLjM2YzAuNzEsMC43NiwxLjA4LDEuNzgsMS4wOCwzYzAsMS41Mi0wLjU1LDIuNzctMS42NCwzLjcyYy0xLjEsMC45NC0yLjQ5LDEuNDMtNC4xNSwxLjQzSDBWMzUuNTh6ICAgICAgIE0yLjEsMTkuNTZ2NS43N2gyLjE1YzEuMTUsMCwyLjA1LTAuMjcsMi43LTAuODNjMC42NC0wLjU1LDAuOTktMS4zNCwwLjk5LTIuMzNjMC0xLjczLTEuMTUtMi42MS0zLjQ0LTIuNjFIMi4xeiBNMi4xLDI3LjIyICAgICAgdjYuNDRoMi44NGMxLjIyLDAsMi4xOS0wLjMsMi44Ni0wLjg3YzAuNjctMC41OCwxLjAyLTEuMzksMS4wMi0yLjRjMC0yLjEzLTEuNDMtMy4xNy00LjMyLTMuMTdMMi4xLDI3LjIyeiIvPiYjeGE7CQkJPC9nPiYjeGE7CQkJPGcgaWQ9InNoYXBlMzA0LTI2IiB0cmFuc2Zvcm09InRyYW5zbGF0ZSg4OS45NjU2LC0wLjMwMDAzOSkiPiYjeGE7CQkJCTx0aXRsZSBpZD0idGl0bGUxMTM0NTYiPlNoZWV0LjMwNDwvdGl0bGU+JiN4YTsJCQkJPHBhdGggaWQ9InBhdGgxMTM0NTgiIGlua3NjYXBlOmNvbm5lY3Rvci1jdXJ2YXR1cmU9IjAiIHN0eWxlPSJmaWxsOiMzRjU3NjU7IiBkPSJNMi4xLDM1LjU4SDBWMTcuNjdoMi4xVjM1LjU4eiIvPiYjeGE7CQkJPC9nPiYjeGE7CQk8L2c+JiN4YTsJPC9nPiYjeGE7PC9nPiYjeGE7PC9zdmc+;" vertex="1" parent="zGcDoc4lVkIL3ZflWjKM-745">
          <mxGeometry y="127.82" width="143" height="34" as="geometry" />
        </mxCell>
        <mxCell id="zGcDoc4lVkIL3ZflWjKM-749" value="" style="shape=image;verticalLabelPosition=bottom;labelBackgroundColor=default;verticalAlign=top;aspect=fixed;imageAspect=0;image=https://cdn.icon-icons.com/icons2/3915/PNG/512/streamlit_logo_icon_249495.png;" vertex="1" parent="1">
          <mxGeometry x="1367.5" y="400" width="232" height="232" as="geometry" />
        </mxCell>
        <mxCell id="zGcDoc4lVkIL3ZflWjKM-750" value="" style="shape=image;verticalLabelPosition=bottom;labelBackgroundColor=#ffffff;verticalAlign=top;aspect=fixed;imageAspect=0;image=data:image/svg+xml,PHN2ZyB4bWxuczpjYz0iaHR0cDovL2NyZWF0aXZlY29tbW9ucy5vcmcvbnMjIiB4bWxuczpkYz0iaHR0cDovL3B1cmwub3JnL2RjL2VsZW1lbnRzLzEuMS8iIHhtbG5zOmlua3NjYXBlPSJodHRwOi8vd3d3Lmlua3NjYXBlLm9yZy9uYW1lc3BhY2VzL2lua3NjYXBlIiB4bWxuczpyZGY9Imh0dHA6Ly93d3cudzMub3JnLzE5OTkvMDIvMjItcmRmLXN5bnRheC1ucyMiIHhtbG5zOnNvZGlwb2RpPSJodHRwOi8vc29kaXBvZGkuc291cmNlZm9yZ2UubmV0L0RURC9zb2RpcG9kaS0wLmR0ZCIgeG1sbnM6c3ZnPSJodHRwOi8vd3d3LnczLm9yZy8yMDAwL3N2ZyIgeG1sbnM9Imh0dHA6Ly93d3cudzMub3JnLzIwMDAvc3ZnIiB4bWxuczp4bGluaz0iaHR0cDovL3d3dy53My5vcmcvMTk5OS94bGluayIgdmVyc2lvbj0iMS4xIiBpZD0ic3ZnNDUwMTQiIGlua3NjYXBlOnZlcnNpb249IjAuOTIuMyAoMjQwNTU0NiwgMjAxOC0wMy0xMSkiIHNvZGlwb2RpOmRvY25hbWU9ImNzdl9maWxlLnN2ZyIgeD0iMHB4IiB5PSIwcHgiIHZpZXdCb3g9IjAgMCA5NS4zMyAxMjIuNTYiIHN0eWxlPSJlbmFibGUtYmFja2dyb3VuZDpuZXcgMCAwIDk1LjMzIDEyMi41NjsiIHhtbDpzcGFjZT0icHJlc2VydmUiPiYjeGE7PHNvZGlwb2RpOm5hbWVkdmlldyBib3JkZXJjb2xvcj0iIzY2NjY2NiIgYm9yZGVyb3BhY2l0eT0iMSIgZml0LW1hcmdpbi1ib3R0b209IjAiIGZpdC1tYXJnaW4tbGVmdD0iMCIgZml0LW1hcmdpbi1yaWdodD0iMCIgZml0LW1hcmdpbi10b3A9IjAiIGdyaWR0b2xlcmFuY2U9IjEwIiBndWlkZXRvbGVyYW5jZT0iMTAiIGlkPSJuYW1lZHZpZXc0NTAxNiIgaW5rc2NhcGU6Y3VycmVudC1sYXllcj0ic3ZnNDUwMTQiIGlua3NjYXBlOmN4PSI2NS40ODMzMTQiIGlua3NjYXBlOmN5PSI2MC43MTUyODkiIGlua3NjYXBlOnBhZ2VvcGFjaXR5PSIwIiBpbmtzY2FwZTpwYWdlc2hhZG93PSIyIiBpbmtzY2FwZTp3aW5kb3ctaGVpZ2h0PSIxMDE3IiBpbmtzY2FwZTp3aW5kb3ctbWF4aW1pemVkPSIxIiBpbmtzY2FwZTp3aW5kb3ctd2lkdGg9IjE5MjAiIGlua3NjYXBlOndpbmRvdy14PSItOCIgaW5rc2NhcGU6d2luZG93LXk9Ii04IiBpbmtzY2FwZTp6b29tPSIzLjAwMTk5NyIgb2JqZWN0dG9sZXJhbmNlPSIxMCIgcGFnZWNvbG9yPSIjZmZmZmZmIiBzaG93Z3JpZD0iZmFsc2UiPiYjeGE7CTwvc29kaXBvZGk6bmFtZWR2aWV3PiYjeGE7PGcgaWQ9Imc0NTAxMiIgdHJhbnNmb3JtPSJ0cmFuc2xhdGUoLTE1LjMsLTE1LjMwMDQ4OCkiPiYjeGE7CTx0aXRsZSBpZD0idGl0bGU0NDkzNiI+UGFnZS0xPC90aXRsZT4mI3hhOwk8ZyBpZD0iZ3JvdXA0MTcwLTEiIHRyYW5zZm9ybT0idHJhbnNsYXRlKDE1LjMsLTE1LjMpIj4mI3hhOwkJPHRpdGxlIGlkPSJ0aXRsZTQ0OTM4Ij5DU1YgRmlsZTwvdGl0bGU+JiN4YTsJCTxnIGlkPSJncm91cDQxNzEtMiI+JiN4YTsJCQk8dGl0bGUgaWQ9InRpdGxlNDQ5NDAiPlNoZWV0LjQxNzE8L3RpdGxlPiYjeGE7CQkJPGcgaWQ9InNoYXBlNDE3Mi0zIiB0cmFuc2Zvcm09InRyYW5zbGF0ZSgxLjcwMjI3LC0xLjcwMjI3KSI+JiN4YTsJCQkJPHRpdGxlIGlkPSJ0aXRsZTQ0OTQyIj5TaGVldC40MTcyPC90aXRsZT4mI3hhOwkJCQk8cGF0aCBpZD0icGF0aDQ0OTQ0IiBpbmtzY2FwZTpjb25uZWN0b3ItY3VydmF0dXJlPSIwIiBzdHlsZT0iZmlsbDojRkZGRkZGOyIgZD0iTTAsMTUzLjE2VjM0aDYyLjI4bDI5LjY0LDI5LjY1djg5LjUxSDB6Ii8+JiN4YTsJCQk8L2c+JiN4YTsJCQk8ZyBpZD0ic2hhcGU0MTczLTUiPiYjeGE7CQkJCTx0aXRsZSBpZD0idGl0bGU0NDk0NyI+U2hlZXQuNDE3MzwvdGl0bGU+JiN4YTsJCQkJPHBhdGggaWQ9InBhdGg0NDk0OSIgaW5rc2NhcGU6Y29ubmVjdG9yLWN1cnZhdHVyZT0iMCIgc3R5bGU9ImZpbGw6Izc4OEI5QzsiIGQ9Ik02My4yOCwzNGwyOC42NCwyOC42NXY4Ny4xMUgzLjRWMzRINjMuMjh6ICAgICAgIE02NC42OSwzMC42SDB2MTIyLjU2aDk1LjMzVjYxLjI0TDY0LjY5LDMwLjZ6Ii8+JiN4YTsJCQk8L2c+JiN4YTsJCTwvZz4mI3hhOwkJPGcgaWQ9Imdyb3VwNDE3NC03IiB0cmFuc2Zvcm09InRyYW5zbGF0ZSg2MS4yODE2LC04OC41MTc4KSI+JiN4YTsJCQk8dGl0bGUgaWQ9InRpdGxlNDQ5NTMiPlNoZWV0LjQxNzQ8L3RpdGxlPiYjeGE7CQkJPGcgaWQ9InNoYXBlNDE3NS04IiB0cmFuc2Zvcm09InRyYW5zbGF0ZSgxLjcwMjI3LC0xLjcwMjI3KSI+JiN4YTsJCQkJPHRpdGxlIGlkPSJ0aXRsZTQ0OTU1Ij5TaGVldC40MTc1PC90aXRsZT4mI3hhOwkJCQk8cGF0aCBpZD0icGF0aDQ0OTU3IiBpbmtzY2FwZTpjb25uZWN0b3ItY3VydmF0dXJlPSIwIiBzdHlsZT0iZmlsbDojRkZGRkZGOyIgZD0iTTAsMTUzLjE2di0zMC42NGgxbDI5LjY0LDI5LjY1djAuOTlIMHoiLz4mI3hhOwkJCTwvZz4mI3hhOwkJCTxnIGlkPSJzaGFwZTQxNzYtMTAiPiYjeGE7CQkJCTx0aXRsZSBpZD0idGl0bGU0NDk2MCI+U2hlZXQuNDE3NjwvdGl0bGU+JiN4YTsJCQkJPHBhdGggaWQ9InBhdGg0NDk2MiIgaW5rc2NhcGU6Y29ubmVjdG9yLWN1cnZhdHVyZT0iMCIgc3R5bGU9ImZpbGw6Izc4OEI5QzsiIGQ9Ik0zLjQsMTIzLjkzbDI1LjgzLDI1LjgzSDMuNFYxMjMuOTN6ICAgICAgIE0zLjQsMTE5LjEySDB2MzQuMDRoMzQuMDV2LTMuNEwzLjQsMTE5LjEyeiIvPiYjeGE7CQkJPC9nPiYjeGE7CQk8L2c+JiN4YTsJCTxnIGlkPSJzaGFwZTQxNzctMTIiIHRyYW5zZm9ybT0idHJhbnNsYXRlKDEzLjYxODEsLTk4LjczMTQpIj4mI3hhOwkJCTx0aXRsZSBpZD0idGl0bGU0NDk2NiI+U2hlZXQuNDE3NzwvdGl0bGU+JiN4YTsJCQk8cGF0aCBpZD0icGF0aDQ0OTY4IiBpbmtzY2FwZTpjb25uZWN0b3ItY3VydmF0dXJlPSIwIiBzdHlsZT0iZmlsbDojQkFFMEJEOyIgZD0iTTAsMTUzLjE2aDEzLjYydi0zLjRIMFYxNTMuMTZ6IE0yMy44MywxNDkuNzYgICAgIHYzLjRoMjAuNDN2LTMuNEgyMy44M3oiLz4mI3hhOwkJPC9nPiYjeGE7CQk8ZyBpZD0ic2hhcGU0MTc4LTE0IiB0cmFuc2Zvcm09InRyYW5zbGF0ZSgxMy42MTgxLC05MS45MjI0KSI+JiN4YTsJCQk8dGl0bGUgaWQ9InRpdGxlNDQ5NzEiPlNoZWV0LjQxNzg8L3RpdGxlPiYjeGE7CQkJPHBhdGggaWQ9InBhdGg0NDk3MyIgaW5rc2NhcGU6Y29ubmVjdG9yLWN1cnZhdHVyZT0iMCIgc3R5bGU9ImZpbGw6I0JBRTBCRDsiIGQ9Ik0wLDE1My4xNmgxMy42MnYtMy40SDBWMTUzLjE2eiBNMjMuODMsMTQ5Ljc2ICAgICB2My40aDIwLjQzdi0zLjRIMjMuODN6Ii8+JiN4YTsJCTwvZz4mI3hhOwkJPGcgaWQ9InNoYXBlNDE3OS0xNiIgdHJhbnNmb3JtPSJ0cmFuc2xhdGUoMTMuNjE4MSwtODUuMTEzMykiPiYjeGE7CQkJPHRpdGxlIGlkPSJ0aXRsZTQ0OTc2Ij5TaGVldC40MTc5PC90aXRsZT4mI3hhOwkJCTxwYXRoIGlkPSJwYXRoNDQ5NzgiIGlua3NjYXBlOmNvbm5lY3Rvci1jdXJ2YXR1cmU9IjAiIHN0eWxlPSJmaWxsOiNCQUUwQkQ7IiBkPSJNMCwxNTMuMTZoMTMuNjJ2LTMuNEgwVjE1My4xNnogTTU0LjQ3LDE0OS43NiAgICAgdjMuNGgxMy42MnYtMy40SDU0LjQ3eiBNMjMuODMsMTUzLjE2aDIwLjQzdi0zLjRIMjMuODNMMjMuODMsMTUzLjE2eiIvPiYjeGE7CQk8L2c+JiN4YTsJCTxnIGlkPSJzaGFwZTQxODAtMTgiIHRyYW5zZm9ybT0idHJhbnNsYXRlKDEzLjYxODEsLTI3LjIzNjMpIj4mI3hhOwkJCTx0aXRsZSBpZD0idGl0bGU0NDk4MSI+U2hlZXQuNDE4MDwvdGl0bGU+JiN4YTsJCQk8cGF0aCBpZD0icGF0aDQ0OTgzIiBpbmtzY2FwZTpjb25uZWN0b3ItY3VydmF0dXJlPSIwIiBzdHlsZT0iZmlsbDojQkFFMEJEOyIgZD0iTTAsMTUzLjE2aDEzLjYydi0zLjRIMFYxNTMuMTZ6IE01NC40NywxNDkuNzYgICAgIHYzLjRoMTMuNjJ2LTMuNEg1NC40N3ogTTIzLjgzLDE1My4xNmgyMC40M3YtMy40SDIzLjgzTDIzLjgzLDE1My4xNnoiLz4mI3hhOwkJPC9nPiYjeGE7CQk8ZyBpZD0ic2hhcGU0MTgxLTIwIiB0cmFuc2Zvcm09InRyYW5zbGF0ZSgxMy42MTgxLC0yMC40MjcyKSI+JiN4YTsJCQk8dGl0bGUgaWQ9InRpdGxlNDQ5ODYiPlNoZWV0LjQxODE8L3RpdGxlPiYjeGE7CQkJPHBhdGggaWQ9InBhdGg0NDk4OCIgaW5rc2NhcGU6Y29ubmVjdG9yLWN1cnZhdHVyZT0iMCIgc3R5bGU9ImZpbGw6I0JBRTBCRDsiIGQ9Ik0wLDE1My4xNmgxMy42MnYtMy40SDBWMTUzLjE2eiBNNTQuNDcsMTQ5Ljc2ICAgICB2My40aDEzLjYydi0zLjRINTQuNDd6IE0yMy44MywxNTMuMTZoMjAuNDN2LTMuNEgyMy44M0wyMy44MywxNTMuMTZ6Ii8+JiN4YTsJCTwvZz4mI3hhOwkJPGcgaWQ9InNoYXBlNDE4Mi0yMiIgdHJhbnNmb3JtPSJ0cmFuc2xhdGUoMTMuNjE4MSwtMTMuNjE4MSkiPiYjeGE7CQkJPHRpdGxlIGlkPSJ0aXRsZTQ0OTkxIj5TaGVldC40MTgyPC90aXRsZT4mI3hhOwkJCTxwYXRoIGlkPSJwYXRoNDQ5OTMiIGlua3NjYXBlOmNvbm5lY3Rvci1jdXJ2YXR1cmU9IjAiIHN0eWxlPSJmaWxsOiNCQUUwQkQ7IiBkPSJNMCwxNTMuMTZoMTMuNjJ2LTMuNEgwVjE1My4xNnogTTU0LjQ3LDE0OS43NiAgICAgdjMuNGgxMy42MnYtMy40SDU0LjQ3eiBNMjMuODMsMTUzLjE2aDIwLjQzdi0zLjRIMjMuODNMMjMuODMsMTUzLjE2eiIvPiYjeGE7CQk8L2c+JiN4YTsJCTxnIGlkPSJzaGFwZTQxODMtMjQiIHRyYW5zZm9ybT0idHJhbnNsYXRlKDAsLTM0LjA0NTMpIj4mI3hhOwkJCTx0aXRsZSBpZD0idGl0bGU0NDk5NiI+U2hlZXQuNDE4MzwvdGl0bGU+JiN4YTsJCQk8cmVjdCBpZD0icmVjdDQ0OTk4IiB5PSIxMDUuNSIgc3R5bGU9ImZpbGw6IzVFOUM3NjsiIHdpZHRoPSI5NS4zMyIgaGVpZ2h0PSI0Ny42NiIvPiYjeGE7CQk8L2c+JiN4YTsJCTxnIGlkPSJzaGFwZTQxODQtMjYiIHRyYW5zZm9ybT0idHJhbnNsYXRlKDEwLjAwNTksLTQxLjE5MTQpIj4mI3hhOwkJCTx0aXRsZSBpZD0idGl0bGU0NTAwMSI+U2hlZXQuNDE4NDwvdGl0bGU+JiN4YTsJCQk8cGF0aCBpZD0icGF0aDQ1MDAzIiBpbmtzY2FwZTpjb25uZWN0b3ItY3VydmF0dXJlPSIwIiBzdHlsZT0iZmlsbDojRkZGRkZGOyIgZD0iTTE5LjgyLDEyNy42M3YxLjg0SDEzLjd2LTEuNTYgICAgIGMwLTIuODMtMi42My0zLjQxLTMuNzktMy40MWMtMS41MiwwLTMuNzgsMC4zNi0zLjc4LDMuODJ2MTYuNzdjMCwwLjk2LDAuMDMsMy4zNywzLjcyLDMuMzdjMy40OCwwLDMuODUtMi42NywzLjg1LTMuMzF2LTEuNjIgICAgIGg2LjEydjIuMDNjMCwyLjctMi43MSw3LjYtOS43Myw3LjZjLTEuMTYsMC0xMC4wOS0wLjEyLTEwLjA5LTcuNzR2LTE4LjA3YzAtMy4zNSwyLjg2LTcuNTUsOS45Ny03LjU1ICAgICBDMTguNjIsMTE5LjgsMTkuODIsMTI1LjgsMTkuODIsMTI3LjYzeiBNMzkuOTYsMTE5LjhjLTEwLjIsMC0xMC41MSw3Ljc1LTEwLjUxLDguOThjMCw2LjM3LDQuMDIsNy42MSw2LjY3LDguNDRsNC4zOCwxLjM4ICAgICBjMi43MywwLjk2LDMuNTQsMS4xNCwzLjU0LDQuOTdjMCwzLjk3LTEuMTUsNC44OC00LjQ0LDQuODhjLTMuNTEsMC00LjMzLTEuOTQtNC4zMy0zLjM2di0xLjQ3aC02LjEydjEuNzUgICAgIGMwLDUuNjksNi40OCw3Ljc4LDEwLjQ1LDcuNzhjOC4yMiwwLDEwLjU3LTQuNSwxMC41Ny05LjYzYzAtNi41OS0yLjg3LTcuNzktNi40My04Ljk4bC00LjY4LTEuNDNjLTMuNTUtMS4wOC0zLjMzLTIuMy0zLjM5LTIuNzQgICAgIGMtMC4wNi0wLjQ1LTAuMDktMC45OS0wLjA5LTEuNjRjMC00LjI4LDMuMy00LjI0LDQuMTQtNC4yNGMzLjgxLDAsNC4zMiwyLjg5LDQuMzIsMy45N3YxLjA1aDYuMTN2LTIuMjkgICAgIEM1MC4xNywxMjQuNzMsNDcuNDcsMTE5LjgsMzkuOTYsMTE5LjhMMzkuOTYsMTE5Ljh6IE03MS43MiwxMjAuMDdsLTQuOTMsMjIuOTFoLTAuMTJsLTQuODYtMjIuOTFoLTYuNDlsOC43MSwzMi44MWg1LjQxICAgICBsOC43Ni0zMi44MUg3MS43MnoiLz4mI3hhOwkJPC9nPiYjeGE7CQk8ZyBpZD0ic2hhcGU0MTg1LTI4IiB0cmFuc2Zvcm09InRyYW5zbGF0ZSg4MS43MDg4KSI+JiN4YTsJCQk8dGl0bGUgaWQ9InRpdGxlNDUwMDYiPlNoZWV0LjQxODU8L3RpdGxlPiYjeGE7CQkJPHBhdGggaWQ9InBhdGg0NTAwOCIgaW5rc2NhcGU6Y29ubmVjdG9yLWN1cnZhdHVyZT0iMCIgc3R5bGU9ImZpbGw6Izc4OEI5QzsiIGQ9Ik0xMC4yMSwxMTguOTR2MzEuMTFIMHYzLjExaDEzLjYydi0zNC4yMkgxMC4yMXogICAgICIvPiYjeGE7CQk8L2c+JiN4YTsJPC9nPiYjeGE7PC9nPiYjeGE7PC9zdmc+;" vertex="1" parent="1">
          <mxGeometry x="161.81" y="712" width="56.38" height="73" as="geometry" />
        </mxCell>
        <mxCell id="7iRAKHH3Ag8CAZtPUHkE-5" style="edgeStyle=orthogonalEdgeStyle;rounded=0;orthogonalLoop=1;jettySize=auto;html=1;entryX=0.5;entryY=0;entryDx=0;entryDy=0;fontColor=#FFFFFF;strokeColor=#FFFFFF;strokeWidth=4;" edge="1" parent="1" source="bJt1QIP24p35jIjSRAFA-726" target="bJt1QIP24p35jIjSRAFA-745">
          <mxGeometry relative="1" as="geometry" />
        </mxCell>
        <mxCell id="bJt1QIP24p35jIjSRAFA-726" value="" style="dashed=0;outlineConnect=0;html=1;align=center;labelPosition=center;verticalLabelPosition=bottom;verticalAlign=top;shape=mxgraph.webicons.json;gradientColor=#DFDEDE;fontColor=default;fillColor=none;" vertex="1" parent="1">
          <mxGeometry x="141" y="449" width="108" height="116.62" as="geometry" />
        </mxCell>
        <mxCell id="zGcDoc4lVkIL3ZflWjKM-756" value="&lt;font face=&quot;Helvetica&quot; color=&quot;#ffffff&quot; style=&quot;font-size: 20px;&quot;&gt;&lt;b style=&quot;&quot;&gt;Data Warehouse&lt;/b&gt;&lt;/font&gt;" style="text;strokeColor=none;align=center;fillColor=none;html=1;verticalAlign=middle;whiteSpace=wrap;rounded=0;" vertex="1" parent="1">
          <mxGeometry x="711" y="332" width="190" height="42" as="geometry" />
        </mxCell>
        <mxCell id="zGcDoc4lVkIL3ZflWjKM-757" value="&lt;font color=&quot;#ffffff&quot; style=&quot;font-size: 20px;&quot;&gt;&lt;b&gt;Cloud Data&lt;/b&gt;&lt;/font&gt;" style="text;strokeColor=none;align=center;fillColor=none;html=1;verticalAlign=middle;whiteSpace=wrap;rounded=0;fontFamily=Helvetica;" vertex="1" parent="1">
          <mxGeometry x="1018.0000000000001" y="329" width="190" height="42" as="geometry" />
        </mxCell>
        <mxCell id="zGcDoc4lVkIL3ZflWjKM-766" value="" style="group;" connectable="0" vertex="1" parent="1">
          <mxGeometry x="105" y="383" width="190" height="50" as="geometry" />
        </mxCell>
        <mxCell id="bJt1QIP24p35jIjSRAFA-719" value="&lt;font style=&quot;font-size: 18px;&quot;&gt;WebScraping&amp;nbsp;&lt;/font&gt;" style="rounded=1;absoluteArcSize=1;arcSize=2;html=1;strokeColor=#d79b00;shadow=1;dashed=0;strokeColor=none;fontSize=12;align=left;verticalAlign=middle;spacing=10;spacingTop=-4;fillColor=#ffcd28;fontFamily=Lucida Console;gradientColor=#ffa500;" vertex="1" parent="zGcDoc4lVkIL3ZflWjKM-766">
          <mxGeometry width="190" height="50" as="geometry" />
        </mxCell>
        <mxCell id="bJt1QIP24p35jIjSRAFA-723" value="" style="shape=image;verticalLabelPosition=bottom;labelBackgroundColor=#ffffff;verticalAlign=top;aspect=fixed;imageAspect=0;image=data:image/svg+xml,PHN2ZyB4bWxuczpjYz0iaHR0cDovL2NyZWF0aXZlY29tbW9ucy5vcmcvbnMjIiB4bWxuczpkYz0iaHR0cDovL3B1cmwub3JnL2RjL2VsZW1lbnRzLzEuMS8iIHhtbG5zOmlua3NjYXBlPSJodHRwOi8vd3d3Lmlua3NjYXBlLm9yZy9uYW1lc3BhY2VzL2lua3NjYXBlIiB4bWxuczpyZGY9Imh0dHA6Ly93d3cudzMub3JnLzE5OTkvMDIvMjItcmRmLXN5bnRheC1ucyMiIHhtbG5zOnNvZGlwb2RpPSJodHRwOi8vc29kaXBvZGkuc291cmNlZm9yZ2UubmV0L0RURC9zb2RpcG9kaS0wLmR0ZCIgeG1sbnM6c3ZnPSJodHRwOi8vd3d3LnczLm9yZy8yMDAwL3N2ZyIgeG1sbnM9Imh0dHA6Ly93d3cudzMub3JnLzIwMDAvc3ZnIiB4bWxuczp4bGluaz0iaHR0cDovL3d3dy53My5vcmcvMTk5OS94bGluayIgdmVyc2lvbj0iMS4xIiBpZD0ic3ZnODU1MTkiIGlua3NjYXBlOnZlcnNpb249IjAuOTIuMyAoMjQwNTU0NiwgMjAxOC0wMy0xMSkiIHNvZGlwb2RpOmRvY25hbWU9Imh0dHAuc3ZnIiB4PSIwcHgiIHk9IjBweCIgdmlld0JveD0iMCAwIDQ4IDQ4IiBzdHlsZT0iZW5hYmxlLWJhY2tncm91bmQ6bmV3IDAgMCA0OCA0ODsiIHhtbDpzcGFjZT0icHJlc2VydmUiPiYjeGE7PHNvZGlwb2RpOm5hbWVkdmlldyBib3JkZXJjb2xvcj0iIzY2NjY2NiIgYm9yZGVyb3BhY2l0eT0iMSIgZml0LW1hcmdpbi1ib3R0b209IjAiIGZpdC1tYXJnaW4tbGVmdD0iMCIgZml0LW1hcmdpbi1yaWdodD0iMCIgZml0LW1hcmdpbi10b3A9IjAiIGdyaWR0b2xlcmFuY2U9IjEwIiBndWlkZXRvbGVyYW5jZT0iMTAiIGlkPSJuYW1lZHZpZXc4NTUyMSIgaW5rc2NhcGU6Y3VycmVudC1sYXllcj0ic3ZnODU1MTkiIGlua3NjYXBlOmN4PSIzMi4xMzUwMjQiIGlua3NjYXBlOmN5PSIzMi4wMDA3NjkiIGlua3NjYXBlOnBhZ2VvcGFjaXR5PSIwIiBpbmtzY2FwZTpwYWdlc2hhZG93PSIyIiBpbmtzY2FwZTp3aW5kb3ctaGVpZ2h0PSIxMDE3IiBpbmtzY2FwZTp3aW5kb3ctbWF4aW1pemVkPSIxIiBpbmtzY2FwZTp3aW5kb3ctd2lkdGg9IjE5MjAiIGlua3NjYXBlOndpbmRvdy14PSItOCIgaW5rc2NhcGU6d2luZG93LXk9Ii04IiBpbmtzY2FwZTp6b29tPSIxMy4xMzYzNjQiIG9iamVjdHRvbGVyYW5jZT0iMTAiIHBhZ2Vjb2xvcj0iI2ZmZmZmZiIgc2hvd2dyaWQ9ImZhbHNlIj4mI3hhOwk8L3NvZGlwb2RpOm5hbWVkdmlldz4mI3hhOzxnIGlkPSJnODU1MTciIHRyYW5zZm9ybT0idHJhbnNsYXRlKC0wLjc5NSwtMC43NSkiPiYjeGE7CTx0aXRsZSBpZD0idGl0bGU4NTQ0MCI+UGFnZS0xPC90aXRsZT4mI3hhOwk8ZyBpZD0iZ3JvdXA1MjQ5LTEiIHRyYW5zZm9ybT0idHJhbnNsYXRlKDAuNzk1LC0wLjc1KSI+JiN4YTsJCTx0aXRsZSBpZD0idGl0bGU4NTQ0MiI+SFRUUDwvdGl0bGU+JiN4YTsJCTxnIGlkPSJzaGFwZTUyNTAtMiI+JiN4YTsJCQk8dGl0bGUgaWQ9InRpdGxlODU0NDQiPmNpcmNsZTE1MDU1PC90aXRsZT4mI3hhOwkJCTxjaXJjbGUgaWQ9ImVsbGlwc2U4NTQ0NiIgc3R5bGU9ImZpbGw6I0ZGRkZGRjsiIGN4PSIyNCIgY3k9IjI1LjUiIHI9IjI0Ii8+JiN4YTsJCTwvZz4mI3hhOwkJPGcgaWQ9InNoYXBlNTI1MS00IiB0cmFuc2Zvcm09InRyYW5zbGF0ZSgxLjQ5NzE5LC0xLjMxMjUpIj4mI3hhOwkJCTx0aXRsZSBpZD0idGl0bGU4NTQ0OSI+cGF0aDE1MDU3PC90aXRsZT4mI3hhOwkJCTxwYXRoIGlkPSJwYXRoODU0NTEiIGlua3NjYXBlOmNvbm5lY3Rvci1jdXJ2YXR1cmU9IjAiIHN0eWxlPSJmaWxsOiNGRkZGRkY7IiBkPSJNNDUuMzgsMjYuNjNjMCwwLjA2LDAsMC4xMiwwLDAuMTggICAgIGMwLDEyLjUzLTEwLjE2LDIyLjY5LTIyLjY5LDIyLjY5UzAsMzkuMzQsMCwyNi44MWMwLTAuMDYsMC0wLjEyLDAtMC4xOEMwLDE0LjEsMTAuMTYsMy45NCwyMi42OSwzLjk0UzQ1LjM4LDE0LjEsNDUuMzgsMjYuNjN6Ii8+JiN4YTsJCTwvZz4mI3hhOwkJPGcgaWQ9InNoYXBlNTI1Mi02IiB0cmFuc2Zvcm09InRyYW5zbGF0ZSg0LjE2MjUsLTM1LjI1KSI+JiN4YTsJCQk8dGl0bGUgaWQ9InRpdGxlODU0NTQiPnBhdGgxNTA1OTwvdGl0bGU+JiN4YTsJCQk8cGF0aCBpZD0icGF0aDg1NDU2IiBpbmtzY2FwZTpjb25uZWN0b3ItY3VydmF0dXJlPSIwIiBzdHlsZT0iZmlsbDpub25lOyIgZD0iTTAsNDcuN2MzLjI1LDEuMDUsMTAuODQsMS44LDE5Ljc1LDEuOCAgICAgYzguNjUsMCwxNi4xMS0wLjcsMTkuNS0xLjcyTDAsNDcuN3oiLz4mI3hhOwkJCSYjeGE7CQkJCTxwYXRoIGlkPSJwYXRoODU0NTgiIGlua3NjYXBlOmNvbm5lY3Rvci1jdXJ2YXR1cmU9IjAiIHN0eWxlPSJmaWxsOm5vbmU7c3Ryb2tlOiNEM0QzRDM7c3Ryb2tlLXdpZHRoOjEuNTtzdHJva2UtbWl0ZXJsaW1pdDozOyIgZD0iICAgICBNMCw0Ny43YzMuMjUsMS4wNSwxMC44NCwxLjgsMTkuNzUsMS44YzguNjUsMCwxNi4xMS0wLjcsMTkuNS0xLjcyIi8+JiN4YTsJCTwvZz4mI3hhOwkJPGcgaWQ9InNoYXBlNTI1My05IiB0cmFuc2Zvcm09InRyYW5zbGF0ZSgxMy40NCwtMjIuNzcpIj4mI3hhOwkJCTx0aXRsZSBpZD0idGl0bGU4NTQ2MSI+cGF0aDE1MDYxPC90aXRsZT4mI3hhOwkJCTxwYXRoIGlkPSJwYXRoODU0NjMiIGlua3NjYXBlOmNvbm5lY3Rvci1jdXJ2YXR1cmU9IjAiIHN0eWxlPSJmaWxsOiNEM0QzRDM7IiBkPSJNMTAuNTYsMjYuMjVjNC4yMSwwLDguODgsOC45LDkuMDUsMjEuNzVIMS41MSAgICAgQzEuNjgsMzUuMTUsNi4zNiwyNi4yNSwxMC41NiwyNi4yNXogTTEwLjU2LDI0Ljc1QzQuNzIsMjQuNzUsMCwzNS41LDAsNDguNzVjMCwwLjI2LDAsMC41LDAsMC43NWgyMS4xMWMwLTAuMjUsMC0wLjQ5LDAtMC43NSAgICAgYzAtMTMuMjUtNC43Mi0yNC0xMC41Ni0yNEgxMC41NnoiLz4mI3hhOwkJPC9nPiYjeGE7CQk8ZyBpZD0ic2hhcGU1MjU0LTExIiB0cmFuc2Zvcm09InRyYW5zbGF0ZSgxLjEzMjUsLTEuMTI1KSI+JiN4YTsJCQk8dGl0bGUgaWQ9InRpdGxlODU0NjYiPnBhdGgxNTA2MzwvdGl0bGU+JiN4YTsJCQk8cGF0aCBpZD0icGF0aDg1NDY4IiBpbmtzY2FwZTpjb25uZWN0b3ItY3VydmF0dXJlPSIwIiBzdHlsZT0iZmlsbDojNTVEMkY2OyIgZD0iTTIzLjA1LDQ5LjVDMTAuNCw0OS40NywwLjEzLDM5LjI3LDAsMjYuNjMgICAgIHYtMC4zOGg0Ni4xMnYwLjM4QzQ1Ljk5LDM5LjI4LDM1LjcsNDkuNDgsMjMuMDUsNDkuNXoiLz4mI3hhOwkJPC9nPiYjeGE7CQk8ZyBpZD0ic2hhcGU1MjU1LTEzIiB0cmFuc2Zvcm09InRyYW5zbGF0ZSgxLjUsLTcuMDI5NDQpIj4mI3hhOwkJCTx0aXRsZSBpZD0idGl0bGU4NTQ3MSI+cGF0aDE1MDY1PC90aXRsZT4mI3hhOwkJCTxwYXRoIGlkPSJwYXRoODU0NzMiIGlua3NjYXBlOmNvbm5lY3Rvci1jdXJ2YXR1cmU9IjAiIHN0eWxlPSJmaWxsOiM1NTZBOEE7IiBkPSJNMjIuNSwxMC4wM2MxMi40MywwLDIyLjUsMTAuMDcsMjIuNSwyMi41ICAgICBzLTEwLjA3LDIyLjUtMjIuNSwyMi41UzAsNDQuOTYsMCwzMi41M2wwLDBDMCwyMC4xLDEwLjA3LDEwLjAzLDIyLjUsMTAuMDN6IE0yMi41LDguNTNjLTEzLjI1LDAtMjQsMTAuNzUtMjQsMjRzMTAuNzUsMjQsMjQsMjQgICAgIHMyNC0xMC43NSwyNC0yNGwwLDBDNDYuNSwxOS4yOCwzNS43NSw4LjUzLDIyLjUsOC41M3oiLz4mI3hhOwkJPC9nPiYjeGE7CQk8ZyBpZD0ic2hhcGU1MjU2LTE1IiB0cmFuc2Zvcm09InRyYW5zbGF0ZSg0LjE2MjUsLTExLjc2KSI+JiN4YTsJCQk8dGl0bGUgaWQ9InRpdGxlODU0NzYiPnBhdGgxNTA2NzwvdGl0bGU+JiN4YTsJCQk8cGF0aCBpZD0icGF0aDg1NDc4IiBpbmtzY2FwZTpjb25uZWN0b3ItY3VydmF0dXJlPSIwIiBzdHlsZT0iZmlsbDpub25lOyIgZD0iTTAsNDkuNWMzLjI1LTEuMDYsMTAuODctMS44LDE5Ljc1LTEuOCAgICAgYzguNjUsMCwxNi4xMSwwLjcxLDE5LjUsMS43M0wwLDQ5LjV6Ii8+JiN4YTsJCQkmI3hhOwkJCQk8cGF0aCBpZD0icGF0aDg1NDgwIiBpbmtzY2FwZTpjb25uZWN0b3ItY3VydmF0dXJlPSIwIiBzdHlsZT0iZmlsbDpub25lO3N0cm9rZTojNTU2QThBO3N0cm9rZS13aWR0aDoxLjU7c3Ryb2tlLW1pdGVybGltaXQ6MzsiIGQ9IiAgICAgTTAsNDkuNWMzLjI1LTEuMDYsMTAuODctMS44LDE5Ljc1LTEuOGM4LjY1LDAsMTYuMTEsMC43MSwxOS41LDEuNzMiLz4mI3hhOwkJPC9nPiYjeGE7CQk8ZyBpZD0ic2hhcGU1MjU3LTE4IiB0cmFuc2Zvcm09InRyYW5zbGF0ZSgwLjcwNSwtMjQpIj4mI3hhOwkJCTx0aXRsZSBpZD0idGl0bGU4NTQ4MyI+bGluZTE1MDY5PC90aXRsZT4mI3hhOwkJCSYjeGE7CQkJCTxwYXRoIGlkPSJwYXRoODU0ODUiIGlua3NjYXBlOmNvbm5lY3Rvci1jdXJ2YXR1cmU9IjAiIHN0eWxlPSJmaWxsOm5vbmU7c3Ryb2tlOiM1NTZBOEE7c3Ryb2tlLXdpZHRoOjEuNTtzdHJva2UtbWl0ZXJsaW1pdDozOyIgZD0iICAgICBNMCw0OS41aDQ2Ljc5Ii8+JiN4YTsJCTwvZz4mI3hhOwkJPGcgaWQ9Imdyb3VwNTI1OC0yMSIgdHJhbnNmb3JtPSJ0cmFuc2xhdGUoOC42Nzc1LC0yNi43NTI1KSI+JiN4YTsJCQk8dGl0bGUgaWQ9InRpdGxlODU0ODgiPmcxNTA3OTwvdGl0bGU+JiN4YTsJCQk8ZyBpZD0ic2hhcGU1MjU5LTIyIj4mI3hhOwkJCQk8dGl0bGUgaWQ9InRpdGxlODU0OTAiPnBhdGgxNTA3MTwvdGl0bGU+JiN4YTsJCQkJPHBhdGggaWQ9InBhdGg4NTQ5MiIgaW5rc2NhcGU6Y29ubmVjdG9yLWN1cnZhdHVyZT0iMCIgc3R5bGU9ImZpbGw6IzU1NkE4QTsiIGQ9Ik03LjU5LDQ5LjQ5SDYuMDFWNDUuNEgxLjU3djQuMUgwdi05LjQ2aDEuNTcgICAgICBWNDRoNC40NHYtMy45N2gxLjU4VjQ5LjQ5eiIvPiYjeGE7CQkJPC9nPiYjeGE7CQkJPGcgaWQ9InNoYXBlNTI2MC0yNCIgdHJhbnNmb3JtPSJ0cmFuc2xhdGUoOSwtMC4wMDc1KSI+JiN4YTsJCQkJPHRpdGxlIGlkPSJ0aXRsZTg1NDk1Ij5wYXRoMTUwNzM8L3RpdGxlPiYjeGE7CQkJCTxwYXRoIGlkPSJwYXRoODU0OTciIGlua3NjYXBlOmNvbm5lY3Rvci1jdXJ2YXR1cmU9IjAiIHN0eWxlPSJmaWxsOiM1NTZBOEE7IiBkPSJNNi45OSw0MS4zOUg0LjI3djguMTFIMi43MXYtOC4xMUgwdi0xLjM0aDcgICAgICBMNi45OSw0MS4zOXoiLz4mI3hhOwkJCTwvZz4mI3hhOwkJCTxnIGlkPSJzaGFwZTUyNjEtMjYiIHRyYW5zZm9ybT0idHJhbnNsYXRlKDE2LjcxLC0wLjAwNzUpIj4mI3hhOwkJCQk8dGl0bGUgaWQ9InRpdGxlODU1MDAiPnBhdGgxNTA3NTwvdGl0bGU+JiN4YTsJCQkJPHBhdGggaWQ9InBhdGg4NTUwMiIgaW5rc2NhcGU6Y29ubmVjdG9yLWN1cnZhdHVyZT0iMCIgc3R5bGU9ImZpbGw6IzU1NkE4QTsiIGQ9Ik02Ljk5LDQxLjM5SDQuMjd2OC4xMUgyLjcxdi04LjExSDB2LTEuMzRoNyAgICAgIEw2Ljk5LDQxLjM5eiIvPiYjeGE7CQkJPC9nPiYjeGE7CQkJPGcgaWQ9InNoYXBlNTI2Mi0yOCIgdHJhbnNmb3JtPSJ0cmFuc2xhdGUoMjUuMDcyNSwtMC4wMDc1KSI+JiN4YTsJCQkJPHRpdGxlIGlkPSJ0aXRsZTg1NTA1Ij5wYXRoMTUwNzc8L3RpdGxlPiYjeGE7CQkJCTxwYXRoIGlkPSJwYXRoODU1MDciIGlua3NjYXBlOmNvbm5lY3Rvci1jdXJ2YXR1cmU9IjAiIHN0eWxlPSJmaWxsOiM1NTZBOEE7IiBkPSJNMS41Nyw0Ni4wN3YzLjQzSDB2LTkuNDVoMi44NiAgICAgIGMwLjkxLTAuMDYsMS44LDAuMjEsMi41MywwLjc1YzAuNjEsMC41NCwwLjk1LDEuMzMsMC45LDIuMTRjMC4wMywwLjg1LTAuMzIsMS42Ny0wLjk0LDIuMjVjLTAuNjksMC42MS0xLjYsMC45My0yLjUyLDAuODhIMS41NyAgICAgIHogTTEuNTcsNDEuMzR2My40MmgxLjAyYzAuNTQsMC4wMywxLjA3LTAuMTMsMS41LTAuNDZjMC4zNi0wLjM0LDAuNTUtMC44MiwwLjUyLTEuMzJjMC0xLjExLTAuNjQtMS42Ny0xLjkzLTEuNjdMMS41Nyw0MS4zNHoiLz4mI3hhOwkJCTwvZz4mI3hhOwkJPC9nPiYjeGE7CQk8ZyBpZD0ic2hhcGU1MjYzLTMwIiB0cmFuc2Zvcm09InRyYW5zbGF0ZSgxMy40NDc1KSI+JiN4YTsJCQk8dGl0bGUgaWQ9InRpdGxlODU1MTEiPnBhdGgxNTA4MTwvdGl0bGU+JiN4YTsJCQk8cGF0aCBpZD0icGF0aDg1NTEzIiBpbmtzY2FwZTpjb25uZWN0b3ItY3VydmF0dXJlPSIwIiBzdHlsZT0iZmlsbDojNTU2QThBOyIgZD0iTTE5LjYsMjYuMjVDMTkuNDMsMzkuMTEsMTQuNzYsNDgsMTAuNTUsNDggICAgIFMxLjY3LDM5LjExLDEuNSwyNi4yNUgxOS42eiBNMjEuMSwyNC43NUgwYzAsMC4yNSwwLDAuNSwwLDAuNzVjMCwxMy4yNSw0LjcyLDI0LDEwLjU2LDI0YzUuODMsMCwxMC41NS0xMC43NSwxMC41NS0yNCAgICAgYzAtMC4yNSwwLTAuNSwwLTAuNzVIMjEuMXoiLz4mI3hhOwkJPC9nPiYjeGE7CTwvZz4mI3hhOzwvZz4mI3hhOzwvc3ZnPg==;" vertex="1" parent="zGcDoc4lVkIL3ZflWjKM-766">
          <mxGeometry x="147" y="10" width="27" height="27" as="geometry" />
        </mxCell>
        <mxCell id="zGcDoc4lVkIL3ZflWjKM-767" value="" style="group;" connectable="0" vertex="1" parent="1">
          <mxGeometry x="814" y="716" width="107" height="137" as="geometry" />
        </mxCell>
        <mxCell id="zGcDoc4lVkIL3ZflWjKM-752" value="" style="shape=image;verticalLabelPosition=bottom;labelBackgroundColor=default;verticalAlign=top;aspect=fixed;imageAspect=0;image=https://codelabs.developers.google.com/static/codelabs/cloud-starting-cloudfunctions-v2/img/51b03178ac54a85f.png;" vertex="1" parent="zGcDoc4lVkIL3ZflWjKM-767">
          <mxGeometry x="2" width="94" height="94" as="geometry" />
        </mxCell>
        <mxCell id="zGcDoc4lVkIL3ZflWjKM-755" value="&lt;font face=&quot;Helvetica&quot; color=&quot;#ffffff&quot;&gt;Google Cloud Functions&lt;/font&gt;" style="text;strokeColor=none;align=center;fillColor=none;html=1;verticalAlign=middle;whiteSpace=wrap;rounded=0;fontFamily=Lucida Console;fontSize=14;fontStyle=1;" vertex="1" parent="zGcDoc4lVkIL3ZflWjKM-767">
          <mxGeometry y="107" width="107" height="30" as="geometry" />
        </mxCell>
        <mxCell id="28X0iAfpzWjIPyULqhDb-2" value="" style="shape=mxgraph.gcp2.google_cloud_platform;fillColor=#F6F6F6;strokeColor=none;shadow=0;gradientColor=none;" vertex="1" parent="1">
          <mxGeometry x="650" y="257" width="73" height="61" as="geometry">
            <mxPoint x="20" y="10" as="offset" />
          </mxGeometry>
        </mxCell>
        <mxCell id="7iRAKHH3Ag8CAZtPUHkE-2" value="&lt;font color=&quot;#ffffff&quot; style=&quot;font-size: 27px;&quot;&gt;&lt;b style=&quot;font-size: 27px;&quot;&gt;Business analytics&lt;/b&gt;&lt;/font&gt;" style="text;strokeColor=none;align=center;fillColor=none;html=1;verticalAlign=middle;whiteSpace=wrap;rounded=0;fontFamily=Helvetica;fontSize=27;" vertex="1" parent="1">
          <mxGeometry x="1350.13" y="371" width="266.75" height="70" as="geometry" />
        </mxCell>
        <mxCell id="7iRAKHH3Ag8CAZtPUHkE-3" value="Data Collection and Preparation" style="text;strokeColor=none;align=center;fillColor=none;html=1;verticalAlign=middle;whiteSpace=wrap;rounded=0;fontFamily=Helvetica;fontSize=27;fontColor=#FFFFFF;fontStyle=1;" vertex="1" parent="1">
          <mxGeometry x="121" y="300" width="417" height="42" as="geometry" />
        </mxCell>
        <mxCell id="7iRAKHH3Ag8CAZtPUHkE-6" style="edgeStyle=orthogonalEdgeStyle;rounded=0;orthogonalLoop=1;jettySize=auto;html=1;fontColor=#FFFFFF;strokeColor=#FFFFFF;strokeWidth=4;" edge="1" parent="1">
          <mxGeometry relative="1" as="geometry">
            <mxPoint x="854" y="532.62" as="targetPoint" />
            <mxPoint x="854.1199999999999" y="700.9499999999999" as="sourcePoint" />
          </mxGeometry>
        </mxCell>
        <mxCell id="7iRAKHH3Ag8CAZtPUHkE-7" value="" style="rounded=1;whiteSpace=wrap;html=1;fillColor=none;dashed=1;strokeColor=#FFFFFF;strokeWidth=3;" vertex="1" parent="1">
          <mxGeometry x="67" y="368" width="1122" height="444" as="geometry" />
        </mxCell>
      </root>
    </mxGraphModel>
  </diagram>
  <diagram id="RJvBOc608CQd96zRHA51" name="Página-2">
    <mxGraphModel grid="1" page="1" gridSize="10" guides="1" tooltips="1" connect="1" arrows="1" fold="1" pageScale="1" pageWidth="827" pageHeight="1169" math="0" shadow="0">
      <root>
        <mxCell id="0" />
        <mxCell id="1" parent="0" />
        <mxCell id="OqTzRFM5xZElox4HOCCk-1" value="&lt;b&gt;Google &lt;/b&gt;Cloud Platform" style="fillColor=#F6F6F6;strokeColor=none;shadow=0;gradientColor=none;fontSize=14;align=left;spacing=10;fontColor=#717171;9E9E9E;verticalAlign=top;spacingTop=-4;fontStyle=0;spacingLeft=40;html=1;container=0;" vertex="1" parent="1">
          <mxGeometry x="320" y="100" width="430" height="430" as="geometry" />
        </mxCell>
        <mxCell id="OqTzRFM5xZElox4HOCCk-2" value="Customer Lists Logic" style="rounded=1;absoluteArcSize=1;arcSize=2;html=1;strokeColor=none;gradientColor=none;shadow=0;dashed=0;strokeColor=none;fontSize=12;fontColor=#9E9E9E;align=left;verticalAlign=top;spacing=10;spacingTop=-4;fillColor=#E1F5FE;" vertex="1" parent="1">
          <mxGeometry x="340" y="220" width="370" height="100" as="geometry" />
        </mxCell>
        <mxCell id="OqTzRFM5xZElox4HOCCk-3" style="edgeStyle=orthogonalEdgeStyle;rounded=0;html=1;labelBackgroundColor=none;startFill=1;startSize=4;endArrow=blockThin;endFill=1;endSize=4;jettySize=auto;orthogonalLoop=1;strokeColor=#4284F3;strokeWidth=2;fontSize=12;fontColor=#000000;align=center;dashed=0;" edge="1" parent="1" source="OqTzRFM5xZElox4HOCCk-6" target="OqTzRFM5xZElox4HOCCk-8">
          <mxGeometry relative="1" as="geometry" />
        </mxCell>
        <mxCell id="OqTzRFM5xZElox4HOCCk-4" style="edgeStyle=orthogonalEdgeStyle;rounded=0;html=1;labelBackgroundColor=none;startFill=1;startSize=4;endArrow=blockThin;endFill=1;endSize=4;jettySize=auto;orthogonalLoop=1;strokeColor=#4284F3;strokeWidth=2;fontSize=12;fontColor=#000000;align=center;dashed=0;" edge="1" parent="1" source="OqTzRFM5xZElox4HOCCk-8" target="OqTzRFM5xZElox4HOCCk-11">
          <mxGeometry relative="1" as="geometry">
            <Array as="points">
              <mxPoint x="730" y="280" />
              <mxPoint x="730" y="160" />
            </Array>
          </mxGeometry>
        </mxCell>
        <mxCell id="OqTzRFM5xZElox4HOCCk-5" style="edgeStyle=orthogonalEdgeStyle;rounded=0;html=1;labelBackgroundColor=none;startFill=1;startSize=4;endArrow=blockThin;endFill=1;endSize=4;jettySize=auto;orthogonalLoop=1;strokeColor=#4284F3;strokeWidth=2;fontSize=12;fontColor=#000000;align=center;dashed=0;" edge="1" parent="1" source="OqTzRFM5xZElox4HOCCk-8" target="OqTzRFM5xZElox4HOCCk-13">
          <mxGeometry relative="1" as="geometry">
            <Array as="points">
              <mxPoint x="730" y="280" />
              <mxPoint x="730" y="370" />
            </Array>
          </mxGeometry>
        </mxCell>
        <mxCell id="OqTzRFM5xZElox4HOCCk-6" value="" style="strokeColor=#dddddd;shadow=1;strokeWidth=1;rounded=1;absoluteArcSize=1;arcSize=2;" vertex="1" parent="1">
          <mxGeometry x="350" y="250" width="160" height="60" as="geometry" />
        </mxCell>
        <mxCell id="OqTzRFM5xZElox4HOCCk-7" value="&lt;font color=&quot;#000000&quot;&gt;Export Ad Data&lt;/font&gt;&lt;br&gt;Cloud Storage" style="editableCssRules=.*;html=1;fontColor=#999999;shape=image;verticalLabelPosition=middle;verticalAlign=middle;labelPosition=right;align=left;spacingLeft=20;part=1;points=[];imageAspect=0;image=data:image/svg+xml,PHN2ZyB4bWxucz0iaHR0cDovL3d3dy53My5vcmcvMjAwMC9zdmciIHhtbG5zOnY9Imh0dHBzOi8vdmVjdGEuaW8vbmFubyIgd2lkdGg9IjIwIiBoZWlnaHQ9IjE2IiB2aWV3Qm94PSIwIDAgMjAgMTYiPiYjeGE7CTxzdHlsZSB0eXBlPSJ0ZXh0L2NzcyI+JiN4YTsJLnN0MHtmaWxsOiM0Mjg1ZjQ7fSYjeGE7CS5zdDF7ZmlsbDojNjY5ZGY2O30mI3hhOwkuc3Qye2ZpbGw6I2FlY2JmYTt9JiN4YTsJLnN0M3tmaWxsOiNmZmY7fSYjeGE7CTwvc3R5bGU+JiN4YTsJPHBhdGggY2xhc3M9InN0MiIgZD0iTTAgMGgyMHY3SDB6Ii8+JiN4YTsJPHBhdGggY2xhc3M9InN0MSIgZD0iTTE4IDBoMnY3aC0yeiIvPiYjeGE7CTxwYXRoIGNsYXNzPSJzdDAiIGQ9Ik0xOCA3bDItN2gtMnoiLz4mI3hhOwk8cGF0aCBjbGFzcz0ic3QxIiBkPSJNMCAwaDJ2N0gweiIvPiYjeGE7CTxnIGNsYXNzPSJzdDMiPiYjeGE7CQk8cGF0aCBkPSJNNCAzaDZ2MUg0eiIvPiYjeGE7CQk8cmVjdCB4PSIxMyIgeT0iMiIgd2lkdGg9IjMiIGhlaWdodD0iMyIgcng9IjEuNSIvPiYjeGE7CTwvZz4mI3hhOwk8cGF0aCBjbGFzcz0ic3QyIiBkPSJNMCA5aDIwdjdIMHoiLz4mI3hhOwk8cGF0aCBjbGFzcz0ic3QxIiBkPSJNMTggOWgydjdoLTJ6Ii8+JiN4YTsJPHBhdGggY2xhc3M9InN0MCIgZD0iTTE4IDE2bDItN2gtMnoiLz4mI3hhOwk8cGF0aCBjbGFzcz0ic3QxIiBkPSJNMCA5aDJ2N0gweiIvPiYjeGE7CTxnIGNsYXNzPSJzdDMiPiYjeGE7CQk8cGF0aCBkPSJNNCAxMmg2djFINHoiLz4mI3hhOwkJPHJlY3QgeD0iMTMiIHk9IjExIiB3aWR0aD0iMyIgaGVpZ2h0PSIzIiByeD0iMS41Ii8+JiN4YTsJPC9nPiYjeGE7PC9zdmc+;" vertex="1" parent="OqTzRFM5xZElox4HOCCk-6">
          <mxGeometry width="30" height="24" relative="1" as="geometry">
            <mxPoint x="15" y="18" as="offset" />
          </mxGeometry>
        </mxCell>
        <mxCell id="OqTzRFM5xZElox4HOCCk-8" value="" style="strokeColor=#dddddd;shadow=1;strokeWidth=1;rounded=1;absoluteArcSize=1;arcSize=2;" vertex="1" parent="1">
          <mxGeometry x="535" y="250" width="160" height="60" as="geometry" />
        </mxCell>
        <mxCell id="OqTzRFM5xZElox4HOCCk-9" value="&lt;font color=&quot;#000000&quot;&gt;Id matching&lt;/font&gt;&lt;br&gt;Cloud Dataflow" style="editableCssRules=.*;html=1;fontColor=#999999;shape=image;verticalLabelPosition=middle;verticalAlign=middle;labelPosition=right;align=left;spacingLeft=20;part=1;points=[];imageAspect=0;image=data:image/svg+xml,PHN2ZyB4bWxucz0iaHR0cDovL3d3dy53My5vcmcvMjAwMC9zdmciIHhtbG5zOnY9Imh0dHBzOi8vdmVjdGEuaW8vbmFubyIgd2lkdGg9IjE0LjUxOTk5OTUwNDA4OTM1NSIgaGVpZ2h0PSIyMCIgdmlld0JveD0iMCAwIDE0LjUxOTk5OTUwNDA4OTM1NSAyMCI+JiN4YTsJPHN0eWxlIHR5cGU9InRleHQvY3NzIj4mI3hhOwkuc3Qwe2ZpbGwtcnVsZTpldmVub2RkfSYjeGE7CS5zdDF7ZmlsbDojNjY5ZGY2O30mI3hhOwkuc3Qye2ZpbGw6I2FlY2JmYTt9JiN4YTsJLnN0M3tmaWxsOiM0Mjg1ZjQ7fSYjeGE7CTwvc3R5bGU+JiN4YTsJPGcgY2xhc3M9InN0MCI+JiN4YTsJCTxwYXRoIGNsYXNzPSJzdDEiIGQ9Ik03LjM3IDIuMDNsLTEuNzIuOTYgMS41MiAxLjUtLjAyIDEuNzMgMS4wMi4wMS4wMi0xLjczIDQuMjQgMi41Ni0uMDEgMS4wNyAxLjc3LjAzVjYuMTFMOS4wNSAzLjA0bC0uMjctLjk0eiIvPiYjeGE7CQk8cGF0aCBjbGFzcz0ic3QyIiBkPSJNNy4zNiAyLjAzbC0xLjQyLjM1LS4yOS42MUwuMzkgNS45Mi4zNiA3Ljk3IDIuMTQgOGwuMDItMS4wNyA0LjMxLTIuNDUtLjAyIDEuNzMuODYuMDEuMDYtNC4xOXoiLz4mI3hhOwkJPGcgY2xhc3M9InN0MSI+JiN4YTsJCQk8cGF0aCBkPSJNNy4zNiAyLjAzTDMuOTUgMCAyLjIxLjk1bDMuNDQgMi4wNCAxLjcyLS45NnptLjcxIDExLjc2bC0xLjcyLS4wMi0uMDIgMS43Mi44MiAyLjQ4IDEuNDItLjEyLjI5LS44NSA1LjI3LTIuOTMuMDMtMi4wOS0xLjc5LS4wMi0uMDIgMS4xLTQuMyAyLjQ1eiIvPiYjeGE7CQkJPHBhdGggZD0iTTcuMTUgMTcuOTdsLTMuNDYgMS45NGgtLjA1bC0xLjY2LS45OSAzLjQ5LTEuOTYgMS42OCAxLjAxeiIvPiYjeGE7CQk8L2c+JiN4YTsJCTxwYXRoIGNsYXNzPSJzdDMiIGQ9Ik0xMC44OC4wOWgtLjA1TDcuMzcgMi4wM2wxLjY4IDEuMDEgMy40OS0xLjk2ek0xMC42MiAyMGgtLjA1bC0zLjQyLTIuMDNoMCAwIDBsMS43Mi0uOTYgMy40NCAyLjA0eiIvPiYjeGE7CQk8cGF0aCBjbGFzcz0ic3QyIiBkPSJNLjMzIDEzLjg5di0yaDEuNzZsLS4wMSAxLjA0IDQuMjUgMi41Ni4wMi0xLjcyLjg2LjAxLS4wNiA0LjE4LTEuNjgtMXoiLz4mI3hhOwk8L2c+JiN4YTsJPGNpcmNsZSBjbGFzcz0ic3QyIiBjeD0iMTMuMzgiIGN5PSIxMC4wNCIgcj0iMS4xNCIvPiYjeGE7CTxjaXJjbGUgY2xhc3M9InN0MiIgY3g9IjEuMTQiIGN5PSI5Ljg4IiByPSIxLjE0Ii8+JiN4YTsJPGNpcmNsZSBjbGFzcz0ic3QyIiBjeD0iNy4zMiIgY3k9IjcuOTkiIHI9IjEuMTQiLz4mI3hhOwk8Y2lyY2xlIGNsYXNzPSJzdDIiIGN4PSI3LjIzIiBjeT0iMTIiIHI9IjEuMTQiLz4mI3hhOzwvc3ZnPg==;" vertex="1" parent="OqTzRFM5xZElox4HOCCk-8">
          <mxGeometry width="22" height="30" relative="1" as="geometry">
            <mxPoint x="19" y="15" as="offset" />
          </mxGeometry>
        </mxCell>
        <mxCell id="OqTzRFM5xZElox4HOCCk-10" value="" style="shape=mxgraph.gcp2.google_cloud_platform;fillColor=#F6F6F6;strokeColor=none;shadow=0;gradientColor=none;" vertex="1" parent="1">
          <mxGeometry x="340" y="110" width="23" height="20" as="geometry">
            <mxPoint x="20" y="10" as="offset" />
          </mxGeometry>
        </mxCell>
        <mxCell id="OqTzRFM5xZElox4HOCCk-11" value="" style="strokeColor=#dddddd;shadow=1;strokeWidth=1;rounded=1;absoluteArcSize=1;arcSize=2;" vertex="1" parent="1">
          <mxGeometry x="535" y="130" width="160" height="60" as="geometry" />
        </mxCell>
        <mxCell id="OqTzRFM5xZElox4HOCCk-12" value="&lt;font color=&quot;#000000&quot;&gt;Relevant Users&lt;/font&gt;&lt;br&gt;Cloud Storage" style="editableCssRules=.*;html=1;fontColor=#999999;shape=image;verticalLabelPosition=middle;verticalAlign=middle;labelPosition=right;align=left;spacingLeft=20;part=1;points=[];imageAspect=0;image=data:image/svg+xml,PHN2ZyB4bWxucz0iaHR0cDovL3d3dy53My5vcmcvMjAwMC9zdmciIHhtbG5zOnY9Imh0dHBzOi8vdmVjdGEuaW8vbmFubyIgd2lkdGg9IjIwIiBoZWlnaHQ9IjE2IiB2aWV3Qm94PSIwIDAgMjAgMTYiPiYjeGE7CTxzdHlsZSB0eXBlPSJ0ZXh0L2NzcyI+JiN4YTsJLnN0MHtmaWxsOiM0Mjg1ZjQ7fSYjeGE7CS5zdDF7ZmlsbDojNjY5ZGY2O30mI3hhOwkuc3Qye2ZpbGw6I2FlY2JmYTt9JiN4YTsJLnN0M3tmaWxsOiNmZmY7fSYjeGE7CTwvc3R5bGU+JiN4YTsJPHBhdGggY2xhc3M9InN0MiIgZD0iTTAgMGgyMHY3SDB6Ii8+JiN4YTsJPHBhdGggY2xhc3M9InN0MSIgZD0iTTE4IDBoMnY3aC0yeiIvPiYjeGE7CTxwYXRoIGNsYXNzPSJzdDAiIGQ9Ik0xOCA3bDItN2gtMnoiLz4mI3hhOwk8cGF0aCBjbGFzcz0ic3QxIiBkPSJNMCAwaDJ2N0gweiIvPiYjeGE7CTxnIGNsYXNzPSJzdDMiPiYjeGE7CQk8cGF0aCBkPSJNNCAzaDZ2MUg0eiIvPiYjeGE7CQk8cmVjdCB4PSIxMyIgeT0iMiIgd2lkdGg9IjMiIGhlaWdodD0iMyIgcng9IjEuNSIvPiYjeGE7CTwvZz4mI3hhOwk8cGF0aCBjbGFzcz0ic3QyIiBkPSJNMCA5aDIwdjdIMHoiLz4mI3hhOwk8cGF0aCBjbGFzcz0ic3QxIiBkPSJNMTggOWgydjdoLTJ6Ii8+JiN4YTsJPHBhdGggY2xhc3M9InN0MCIgZD0iTTE4IDE2bDItN2gtMnoiLz4mI3hhOwk8cGF0aCBjbGFzcz0ic3QxIiBkPSJNMCA5aDJ2N0gweiIvPiYjeGE7CTxnIGNsYXNzPSJzdDMiPiYjeGE7CQk8cGF0aCBkPSJNNCAxMmg2djFINHoiLz4mI3hhOwkJPHJlY3QgeD0iMTMiIHk9IjExIiB3aWR0aD0iMyIgaGVpZ2h0PSIzIiByeD0iMS41Ii8+JiN4YTsJPC9nPiYjeGE7PC9zdmc+;" vertex="1" parent="OqTzRFM5xZElox4HOCCk-11">
          <mxGeometry width="30" height="24" relative="1" as="geometry">
            <mxPoint x="15" y="18" as="offset" />
          </mxGeometry>
        </mxCell>
        <mxCell id="OqTzRFM5xZElox4HOCCk-13" value="" style="strokeColor=#dddddd;shadow=1;strokeWidth=1;rounded=1;absoluteArcSize=1;arcSize=2;" vertex="1" parent="1">
          <mxGeometry x="535" y="340" width="160" height="60" as="geometry" />
        </mxCell>
        <mxCell id="OqTzRFM5xZElox4HOCCk-14" value="&lt;font color=&quot;#000000&quot;&gt;Reference Table&lt;/font&gt;&lt;br&gt;BigQuery" style="editableCssRules=.*;html=1;fontColor=#999999;shape=image;verticalLabelPosition=middle;verticalAlign=middle;labelPosition=right;align=left;spacingLeft=20;part=1;points=[];imageAspect=0;image=data:image/svg+xml,PHN2ZyB4bWxucz0iaHR0cDovL3d3dy53My5vcmcvMjAwMC9zdmciIHhtbG5zOnY9Imh0dHBzOi8vdmVjdGEuaW8vbmFubyIgd2lkdGg9IjIwLjAwMTA0NTIyNzA1MDc4IiBoZWlnaHQ9IjIwLjAwMTA0NTIyNzA1MDc4IiBmaWxsLXJ1bGU9ImV2ZW5vZGQiIHZpZXdCb3g9IjAgMCAyMC4wMDEwNDUyMjcwNTA3OCAyMC4wMDEwNDUyMjcwNTA3OCI+JiN4YTsJPHN0eWxlIHR5cGU9InRleHQvY3NzIj4mI3hhOwkuc3Qwe2ZpbGw6I2FlY2JmYTt9JiN4YTsJLnN0MXtmaWxsOiM2NjlkZjY7fSYjeGE7CS5zdDJ7ZmlsbDojNDI4NWY0O30mI3hhOwk8L3N0eWxlPiYjeGE7CTxwYXRoIGNsYXNzPSJzdDAiIGQ9Ik00LjczIDguODN2Mi42M2E0LjkxIDQuOTEgMCAwIDAgMS43MSAxLjc0VjguODN6Ii8+JiN4YTsJPHBhdGggY2xhc3M9InN0MSIgZD0iTTcuODkgNi40MXY3LjUzQTcuNjIgNy42MiAwIDAgMCA5IDE0YTggOCAwIDAgMCAxIDBWNi40MXoiLz4mI3hhOwk8cGF0aCBjbGFzcz0ic3QwIiBkPSJNMTEuNjQgOS44NnYzLjI5YTUgNSAwIDAgMCAxLjctMS44MlY5Ljg2eiIvPiYjeGE7CTxwYXRoIGNsYXNzPSJzdDIiIGQ9Ik0xNS43NCAxNC4zMmwtMS40MiAxLjQyYS40Mi40MiAwIDAgMCAwIC42bDMuNTQgMy41NGEuNDIuNDIgMCAwIDAgLjU5IDBsMS40My0xLjQzYS40Mi40MiAwIDAgMCAwLS41OWwtMy41NC0zLjU0YS40Mi40MiAwIDAgMC0uNiAwIi8+JiN4YTsJPHBhdGggY2xhc3M9InN0MSIgZD0iTTkgMGE5IDkgMCAxIDAgMCAxOEE5IDkgMCAxIDAgOSAwbTAgMTUuNjlhNi42OCA2LjY4IDAgMCAxIC4wMDctMTMuMzYgNi42OCA2LjY4IDAgMCAxIDQuNzI3IDExLjQwM0E2LjY4IDYuNjggMCAwIDEgOSAxNS42OSIvPiYjeGE7PC9zdmc+;" vertex="1" parent="OqTzRFM5xZElox4HOCCk-13">
          <mxGeometry width="30" height="30" relative="1" as="geometry">
            <mxPoint x="15" y="15" as="offset" />
          </mxGeometry>
        </mxCell>
      </root>
    </mxGraphModel>
  </diagram>
</mxfile>
